<?xml version="1.0" encoding="UTF-8" standalone="no"?>
<!DOCTYPE svg PUBLIC "-//W3C//DTD SVG 1.1//EN"
 "http://www.w3.org/Graphics/SVG/1.1/DTD/svg11.dtd">
<!-- Generated by graphviz version 2.40.1 (20161225.0304)
 -->
<!-- Title: avrflash.c Pages: 1 -->
<svg width="341pt" height="196pt"
 viewBox="0.00 0.00 341.00 196.00" xmlns="http://www.w3.org/2000/svg" xmlns:xlink="http://www.w3.org/1999/xlink">
<g id="graph0" class="graph" transform="scale(1 1) rotate(0) translate(4 192)">
<title>avrflash.c</title>
<polygon fill="#ffffff" stroke="transparent" points="-4,4 -4,-192 337,-192 337,4 -4,4"/>
<!-- Node0 -->
<g id="node1" class="node">
<title>Node0</title>
<polygon fill="#bfbfbf" stroke="#000000" points="147,-168.5 147,-187.5 206,-187.5 206,-168.5 147,-168.5"/>
<text text-anchor="middle" x="176.5" y="-175.5" font-family="Helvetica,sans-Serif" font-size="10.00" fill="#000000">avrflash.c</text>
</g>
<!-- Node1 -->
<g id="node2" class="node">
<title>Node1</title>
<g id="a_node2"><a xlink:href="avrflash_8h.html" target="_top" xlink:title="Flashes elf files to programmer MCU or cart CIC. ">
<polygon fill="#ffffff" stroke="#000000" points="0,-112.5 0,-131.5 59,-131.5 59,-112.5 0,-112.5"/>
<text text-anchor="middle" x="29.5" y="-119.5" font-family="Helvetica,sans-Serif" font-size="10.00" fill="#000000">avrflash.h</text>
</a>
</g>
</g>
<!-- Node0&#45;&gt;Node1 -->
<g id="edge1" class="edge">
<title>Node0&#45;&gt;Node1</title>
<path fill="none" stroke="#191970" d="M151.2298,-168.3733C127.1034,-159.1822 90.5638,-145.2624 63.8123,-135.0713"/>
<polygon fill="#191970" stroke="#191970" points="65.0313,-131.7904 54.4404,-131.5011 62.5393,-138.3318 65.0313,-131.7904"/>
</g>
<!-- Node4 -->
<g id="node5" class="node">
<title>Node4</title>
<g id="a_node5"><a xlink:href="pspawn_8h.html" target="_top" xlink:title="Spawns a child process using a pseudo terminal. ">
<polygon fill="#ffffff" stroke="#000000" points="77.5,-112.5 77.5,-131.5 135.5,-131.5 135.5,-112.5 77.5,-112.5"/>
<text text-anchor="middle" x="106.5" y="-119.5" font-family="Helvetica,sans-Serif" font-size="10.00" fill="#000000">pspawn.h</text>
</a>
</g>
</g>
<!-- Node0&#45;&gt;Node4 -->
<g id="edge4" class="edge">
<title>Node0&#45;&gt;Node4</title>
<path fill="none" stroke="#191970" d="M164.3069,-168.2455C153.8679,-159.8943 138.6345,-147.7076 126.426,-137.9408"/>
<polygon fill="#191970" stroke="#191970" points="128.5485,-135.1566 118.5533,-131.6427 124.1756,-140.6227 128.5485,-135.1566"/>
</g>
<!-- Node5 -->
<g id="node6" class="node">
<title>Node5</title>
<polygon fill="#ffffff" stroke="#bfbfbf" points="153.5,-112.5 153.5,-131.5 199.5,-131.5 199.5,-112.5 153.5,-112.5"/>
<text text-anchor="middle" x="176.5" y="-119.5" font-family="Helvetica,sans-Serif" font-size="10.00" fill="#000000">stdio.h</text>
</g>
<!-- Node0&#45;&gt;Node5 -->
<g id="edge5" class="edge">
<title>Node0&#45;&gt;Node5</title>
<path fill="none" stroke="#191970" d="M176.5,-168.2455C176.5,-160.9382 176.5,-150.6944 176.5,-141.7046"/>
<polygon fill="#191970" stroke="#191970" points="180.0001,-141.6426 176.5,-131.6427 173.0001,-141.6427 180.0001,-141.6426"/>
</g>
<!-- Node6 -->
<g id="node7" class="node">
<title>Node6</title>
<polygon fill="#ffffff" stroke="#bfbfbf" points="217.5,-112.5 217.5,-131.5 265.5,-131.5 265.5,-112.5 217.5,-112.5"/>
<text text-anchor="middle" x="241.5" y="-119.5" font-family="Helvetica,sans-Serif" font-size="10.00" fill="#000000">stdlib.h</text>
</g>
<!-- Node0&#45;&gt;Node6 -->
<g id="edge6" class="edge">
<title>Node0&#45;&gt;Node6</title>
<path fill="none" stroke="#191970" d="M187.8221,-168.2455C197.4223,-159.9746 211.3892,-147.9416 222.6695,-138.2232"/>
<polygon fill="#191970" stroke="#191970" points="225.016,-140.8214 230.3076,-131.6427 220.447,-135.5182 225.016,-140.8214"/>
</g>
<!-- Node7 -->
<g id="node8" class="node">
<title>Node7</title>
<polygon fill="#ffffff" stroke="#bfbfbf" points="284,-112.5 284,-131.5 333,-131.5 333,-112.5 284,-112.5"/>
<text text-anchor="middle" x="308.5" y="-119.5" font-family="Helvetica,sans-Serif" font-size="10.00" fill="#000000">string.h</text>
</g>
<!-- Node0&#45;&gt;Node7 -->
<g id="edge7" class="edge">
<title>Node0&#45;&gt;Node7</title>
<path fill="none" stroke="#191970" d="M199.1916,-168.3733C220.5711,-159.3032 252.8057,-145.6279 276.7362,-135.4755"/>
<polygon fill="#191970" stroke="#191970" points="278.2656,-138.6287 286.1045,-131.5011 275.5317,-132.1846 278.2656,-138.6287"/>
</g>
<!-- Node2 -->
<g id="node3" class="node">
<title>Node2</title>
<g id="a_node3"><a xlink:href="util_8h.html" target="_top" xlink:title="General purpose utiities. ">
<polygon fill="#ffffff" stroke="#000000" points="10.5,-56.5 10.5,-75.5 48.5,-75.5 48.5,-56.5 10.5,-56.5"/>
<text text-anchor="middle" x="29.5" y="-63.5" font-family="Helvetica,sans-Serif" font-size="10.00" fill="#000000">util.h</text>
</a>
</g>
</g>
<!-- Node1&#45;&gt;Node2 -->
<g id="edge2" class="edge">
<title>Node1&#45;&gt;Node2</title>
<path fill="none" stroke="#191970" d="M29.5,-112.2455C29.5,-104.9382 29.5,-94.6944 29.5,-85.7046"/>
<polygon fill="#191970" stroke="#191970" points="33.0001,-85.6426 29.5,-75.6427 26.0001,-85.6427 33.0001,-85.6426"/>
</g>
<!-- Node3 -->
<g id="node4" class="node">
<title>Node3</title>
<polygon fill="#ffffff" stroke="#bfbfbf" points="4,-.5 4,-19.5 55,-19.5 55,-.5 4,-.5"/>
<text text-anchor="middle" x="29.5" y="-7.5" font-family="Helvetica,sans-Serif" font-size="10.00" fill="#000000">unistd.h</text>
</g>
<!-- Node2&#45;&gt;Node3 -->
<g id="edge3" class="edge">
<title>Node2&#45;&gt;Node3</title>
<path fill="none" stroke="#191970" d="M29.5,-56.2455C29.5,-48.9382 29.5,-38.6944 29.5,-29.7046"/>
<polygon fill="#191970" stroke="#191970" points="33.0001,-29.6426 29.5,-19.6427 26.0001,-29.6427 33.0001,-29.6426"/>
</g>
</g>
</svg>
