<?xml version="1.0" encoding="UTF-8" standalone="no"?>
<!DOCTYPE svg PUBLIC "-//W3C//DTD SVG 1.1//EN"
 "http://www.w3.org/Graphics/SVG/1.1/DTD/svg11.dtd">
<!-- Generated by graphviz version 2.40.1 (20161225.0304)
 -->
<!-- Title: avrflash.h Pages: 1 -->
<svg width="132pt" height="84pt"
 viewBox="0.00 0.00 131.50 84.00" xmlns="http://www.w3.org/2000/svg" xmlns:xlink="http://www.w3.org/1999/xlink">
<g id="graph0" class="graph" transform="scale(1 1) rotate(0) translate(4 80)">
<title>avrflash.h</title>
<polygon fill="#ffffff" stroke="transparent" points="-4,4 -4,-80 127.5,-80 127.5,4 -4,4"/>
<!-- Node3 -->
<g id="node1" class="node">
<title>Node3</title>
<polygon fill="#bfbfbf" stroke="#000000" points="35,-56.5 35,-75.5 94,-75.5 94,-56.5 35,-56.5"/>
<text text-anchor="middle" x="64.5" y="-63.5" font-family="Helvetica,sans-Serif" font-size="10.00" fill="#000000">avrflash.h</text>
</g>
<!-- Node4 -->
<g id="node2" class="node">
<title>Node4</title>
<g id="a_node2"><a xlink:href="avrflash_8c.html" target="_top" xlink:title="Flashes elf files to programmer MCU or cart CIC. ">
<polygon fill="#ffffff" stroke="#000000" points="0,-.5 0,-19.5 59,-19.5 59,-.5 0,-.5"/>
<text text-anchor="middle" x="29.5" y="-7.5" font-family="Helvetica,sans-Serif" font-size="10.00" fill="#000000">avrflash.c</text>
</a>
</g>
</g>
<!-- Node3&#45;&gt;Node4 -->
<g id="edge1" class="edge">
<title>Node3&#45;&gt;Node4</title>
<path fill="none" stroke="#191970" d="M53.0185,-47.6296C47.1804,-38.2887 40.3248,-27.3197 35.5267,-19.6427"/>
<polygon fill="#191970" stroke="#191970" points="50.1354,-49.6206 58.4035,-56.2455 56.0714,-45.9105 50.1354,-49.6206"/>
</g>
<!-- Node5 -->
<g id="node3" class="node">
<title>Node5</title>
<g id="a_node3"><a xlink:href="main_8c.html" target="_top" xlink:title="Command Line Interface for the mojo&#45;nes&#45;mk3 programmer. ">
<polygon fill="#ffffff" stroke="#000000" points="77.5,-.5 77.5,-19.5 123.5,-19.5 123.5,-.5 77.5,-.5"/>
<text text-anchor="middle" x="100.5" y="-7.5" font-family="Helvetica,sans-Serif" font-size="10.00" fill="#000000">main.c</text>
</a>
</g>
</g>
<!-- Node3&#45;&gt;Node5 -->
<g id="edge2" class="edge">
<title>Node3&#45;&gt;Node5</title>
<path fill="none" stroke="#191970" d="M76.3096,-47.6296C82.3144,-38.2887 89.3659,-27.3197 94.3011,-19.6427"/>
<polygon fill="#191970" stroke="#191970" points="73.2342,-45.9411 70.7707,-56.2455 79.1225,-49.7264 73.2342,-45.9411"/>
</g>
</g>
</svg>
