<?xml version="1.0" encoding="UTF-8" standalone="no"?>
<!DOCTYPE svg PUBLIC "-//W3C//DTD SVG 1.1//EN"
 "http://www.w3.org/Graphics/SVG/1.1/DTD/svg11.dtd">
<!-- Generated by graphviz version 2.40.1 (20161225.0304)
 -->
<!-- Title: cmd.c Pages: 1 -->
<svg width="394pt" height="140pt"
 viewBox="0.00 0.00 393.50 140.00" xmlns="http://www.w3.org/2000/svg" xmlns:xlink="http://www.w3.org/1999/xlink">
<g id="graph0" class="graph" transform="scale(1 1) rotate(0) translate(4 136)">
<title>cmd.c</title>
<polygon fill="#ffffff" stroke="transparent" points="-4,4 -4,-136 389.5,-136 389.5,4 -4,4"/>
<!-- Node0 -->
<g id="node1" class="node">
<title>Node0</title>
<polygon fill="#bfbfbf" stroke="#000000" points="163,-112.5 163,-131.5 207,-131.5 207,-112.5 163,-112.5"/>
<text text-anchor="middle" x="185" y="-119.5" font-family="Helvetica,sans-Serif" font-size="10.00" fill="#000000">cmd.c</text>
</g>
<!-- Node1 -->
<g id="node2" class="node">
<title>Node1</title>
<g id="a_node2"><a xlink:href="cmd_8h.html" target="_top" xlink:title="Allows sending commands to the programmer, and receiving results. ">
<polygon fill="#ffffff" stroke="#000000" points="0,-56.5 0,-75.5 44,-75.5 44,-56.5 0,-56.5"/>
<text text-anchor="middle" x="22" y="-63.5" font-family="Helvetica,sans-Serif" font-size="10.00" fill="#000000">cmd.h</text>
</a>
</g>
</g>
<!-- Node0&#45;&gt;Node1 -->
<g id="edge1" class="edge">
<title>Node0&#45;&gt;Node1</title>
<path fill="none" stroke="#191970" d="M162.6773,-114.3309C134.5113,-104.6542 85.8864,-87.9487 53.8314,-76.9359"/>
<polygon fill="#191970" stroke="#191970" points="54.6477,-73.5157 44.0531,-73.5765 52.3733,-80.1359 54.6477,-73.5157"/>
</g>
<!-- Node3 -->
<g id="node4" class="node">
<title>Node3</title>
<polygon fill="#ffffff" stroke="#bfbfbf" points="62.5,-56.5 62.5,-75.5 111.5,-75.5 111.5,-56.5 62.5,-56.5"/>
<text text-anchor="middle" x="87" y="-63.5" font-family="Helvetica,sans-Serif" font-size="10.00" fill="#000000">string.h</text>
</g>
<!-- Node0&#45;&gt;Node3 -->
<g id="edge3" class="edge">
<title>Node0&#45;&gt;Node3</title>
<path fill="none" stroke="#191970" d="M167.9297,-112.2455C152.753,-103.5731 130.3379,-90.7645 112.9437,-80.825"/>
<polygon fill="#191970" stroke="#191970" points="114.2936,-77.5653 103.8747,-75.6427 110.8206,-83.643 114.2936,-77.5653"/>
</g>
<!-- Node4 -->
<g id="node5" class="node">
<title>Node4</title>
<polygon fill="#ffffff" stroke="#bfbfbf" points="130,-56.5 130,-75.5 176,-75.5 176,-56.5 130,-56.5"/>
<text text-anchor="middle" x="153" y="-63.5" font-family="Helvetica,sans-Serif" font-size="10.00" fill="#000000">stdio.h</text>
</g>
<!-- Node0&#45;&gt;Node4 -->
<g id="edge4" class="edge">
<title>Node0&#45;&gt;Node4</title>
<path fill="none" stroke="#191970" d="M179.426,-112.2455C175.0669,-104.617 168.8789,-93.7881 163.5867,-84.5267"/>
<polygon fill="#191970" stroke="#191970" points="166.5104,-82.5886 158.5101,-75.6427 160.4327,-86.0616 166.5104,-82.5886"/>
</g>
<!-- Node5 -->
<g id="node6" class="node">
<title>Node5</title>
<polygon fill="#ffffff" stroke="#bfbfbf" points="194,-56.5 194,-75.5 242,-75.5 242,-56.5 194,-56.5"/>
<text text-anchor="middle" x="218" y="-63.5" font-family="Helvetica,sans-Serif" font-size="10.00" fill="#000000">stdlib.h</text>
</g>
<!-- Node0&#45;&gt;Node5 -->
<g id="edge5" class="edge">
<title>Node0&#45;&gt;Node5</title>
<path fill="none" stroke="#191970" d="M190.7482,-112.2455C195.2435,-104.617 201.6248,-93.7881 207.0825,-84.5267"/>
<polygon fill="#191970" stroke="#191970" points="210.2561,-86.035 212.3177,-75.6427 204.2253,-82.4811 210.2561,-86.035"/>
</g>
<!-- Node6 -->
<g id="node7" class="node">
<title>Node6</title>
<g id="a_node7"><a xlink:href="spi-com_8h.html" target="_top" xlink:title="Handles SPI and framing for communications. ">
<polygon fill="#ffffff" stroke="#000000" points="260.5,-56.5 260.5,-75.5 319.5,-75.5 319.5,-56.5 260.5,-56.5"/>
<text text-anchor="middle" x="290" y="-63.5" font-family="Helvetica,sans-Serif" font-size="10.00" fill="#000000">spi&#45;com.h</text>
</a>
</g>
</g>
<!-- Node0&#45;&gt;Node6 -->
<g id="edge6" class="edge">
<title>Node0&#45;&gt;Node6</title>
<path fill="none" stroke="#191970" d="M203.2896,-112.2455C219.7762,-103.4527 244.2352,-90.4079 262.9765,-80.4125"/>
<polygon fill="#191970" stroke="#191970" points="264.7435,-83.4368 271.92,-75.6427 261.4494,-77.2604 264.7435,-83.4368"/>
</g>
<!-- Node8 -->
<g id="node9" class="node">
<title>Node8</title>
<g id="a_node9"><a xlink:href="util_8h.html" target="_top" xlink:title="General purpose utiities. ">
<polygon fill="#ffffff" stroke="#000000" points="340,-56.5 340,-75.5 378,-75.5 378,-56.5 340,-56.5"/>
<text text-anchor="middle" x="359" y="-63.5" font-family="Helvetica,sans-Serif" font-size="10.00" fill="#000000">util.h</text>
</a>
</g>
</g>
<!-- Node0&#45;&gt;Node8 -->
<g id="edge9" class="edge">
<title>Node0&#45;&gt;Node8</title>
<path fill="none" stroke="#191970" d="M207.4765,-114.9161C235.8345,-105.9564 286.0871,-90.0057 329,-76 329.4436,-75.8552 329.8909,-75.709 330.341,-75.5617"/>
<polygon fill="#191970" stroke="#191970" points="331.5686,-78.8423 339.9676,-72.3841 329.3745,-72.195 331.5686,-78.8423"/>
</g>
<!-- Node2 -->
<g id="node3" class="node">
<title>Node2</title>
<polygon fill="#ffffff" stroke="#bfbfbf" points="96.5,-.5 96.5,-19.5 145.5,-19.5 145.5,-.5 96.5,-.5"/>
<text text-anchor="middle" x="121" y="-7.5" font-family="Helvetica,sans-Serif" font-size="10.00" fill="#000000">stdint.h</text>
</g>
<!-- Node1&#45;&gt;Node2 -->
<g id="edge2" class="edge">
<title>Node1&#45;&gt;Node2</title>
<path fill="none" stroke="#191970" d="M39.2445,-56.2455C54.5761,-47.5731 77.2199,-34.7645 94.7916,-24.825"/>
<polygon fill="#191970" stroke="#191970" points="96.9724,-27.6126 103.9531,-19.6427 93.5259,-21.5198 96.9724,-27.6126"/>
</g>
<!-- Node6&#45;&gt;Node2 -->
<g id="edge7" class="edge">
<title>Node6&#45;&gt;Node2</title>
<path fill="none" stroke="#191970" d="M260.9479,-56.3733C231.5684,-46.638 186.1779,-31.5974 155.108,-21.3021"/>
<polygon fill="#191970" stroke="#191970" points="156.1554,-17.962 145.562,-18.1389 153.9536,-24.6067 156.1554,-17.962"/>
</g>
<!-- Node7 -->
<g id="node8" class="node">
<title>Node7</title>
<polygon fill="#ffffff" stroke="#bfbfbf" points="262,-.5 262,-19.5 316,-19.5 316,-.5 262,-.5"/>
<text text-anchor="middle" x="289" y="-7.5" font-family="Helvetica,sans-Serif" font-size="10.00" fill="#000000">mpsse.h</text>
</g>
<!-- Node6&#45;&gt;Node7 -->
<g id="edge8" class="edge">
<title>Node6&#45;&gt;Node7</title>
<path fill="none" stroke="#191970" d="M289.8258,-56.2455C289.6953,-48.9382 289.5124,-38.6944 289.3519,-29.7046"/>
<polygon fill="#191970" stroke="#191970" points="292.8503,-29.5786 289.1722,-19.6427 285.8514,-29.7036 292.8503,-29.5786"/>
</g>
<!-- Node9 -->
<g id="node10" class="node">
<title>Node9</title>
<polygon fill="#ffffff" stroke="#bfbfbf" points="334.5,-.5 334.5,-19.5 385.5,-19.5 385.5,-.5 334.5,-.5"/>
<text text-anchor="middle" x="360" y="-7.5" font-family="Helvetica,sans-Serif" font-size="10.00" fill="#000000">unistd.h</text>
</g>
<!-- Node8&#45;&gt;Node9 -->
<g id="edge10" class="edge">
<title>Node8&#45;&gt;Node9</title>
<path fill="none" stroke="#191970" d="M359.1742,-56.2455C359.3047,-48.9382 359.4876,-38.6944 359.6481,-29.7046"/>
<polygon fill="#191970" stroke="#191970" points="363.1486,-29.7036 359.8278,-19.6427 356.1497,-29.5786 363.1486,-29.7036"/>
</g>
</g>
</svg>
