<?xml version="1.0" encoding="UTF-8" standalone="no"?>
<!DOCTYPE svg PUBLIC "-//W3C//DTD SVG 1.1//EN"
 "http://www.w3.org/Graphics/SVG/1.1/DTD/svg11.dtd">
<!-- Generated by graphviz version 2.40.1 (20161225.0304)
 -->
<!-- Title: cmd.h Pages: 1 -->
<svg width="116pt" height="84pt"
 viewBox="0.00 0.00 116.00 84.00" xmlns="http://www.w3.org/2000/svg" xmlns:xlink="http://www.w3.org/1999/xlink">
<g id="graph0" class="graph" transform="scale(1 1) rotate(0) translate(4 80)">
<title>cmd.h</title>
<polygon fill="#ffffff" stroke="transparent" points="-4,4 -4,-80 112,-80 112,4 -4,4"/>
<!-- Node2 -->
<g id="node1" class="node">
<title>Node2</title>
<polygon fill="#bfbfbf" stroke="#000000" points="31,-56.5 31,-75.5 75,-75.5 75,-56.5 31,-56.5"/>
<text text-anchor="middle" x="53" y="-63.5" font-family="Helvetica,sans-Serif" font-size="10.00" fill="#000000">cmd.h</text>
</g>
<!-- Node3 -->
<g id="node2" class="node">
<title>Node3</title>
<g id="a_node2"><a xlink:href="cmd_8c.html" target="_top" xlink:title="Allows sending commands to the programmer, and receiving results. ">
<polygon fill="#ffffff" stroke="#000000" points="0,-.5 0,-19.5 44,-19.5 44,-.5 0,-.5"/>
<text text-anchor="middle" x="22" y="-7.5" font-family="Helvetica,sans-Serif" font-size="10.00" fill="#000000">cmd.c</text>
</a>
</g>
</g>
<!-- Node2&#45;&gt;Node3 -->
<g id="edge1" class="edge">
<title>Node2&#45;&gt;Node3</title>
<path fill="none" stroke="#191970" d="M42.6688,-47.3372C37.5335,-38.0605 31.5434,-27.2398 27.3379,-19.6427"/>
<polygon fill="#191970" stroke="#191970" points="39.6949,-49.1917 47.6002,-56.2455 45.8191,-45.8015 39.6949,-49.1917"/>
</g>
<!-- Node4 -->
<g id="node3" class="node">
<title>Node4</title>
<g id="a_node3"><a xlink:href="main_8c.html" target="_top" xlink:title="Command Line Interface for the mojo&#45;nes&#45;mk3 programmer. ">
<polygon fill="#ffffff" stroke="#000000" points="62,-.5 62,-19.5 108,-19.5 108,-.5 62,-.5"/>
<text text-anchor="middle" x="85" y="-7.5" font-family="Helvetica,sans-Serif" font-size="10.00" fill="#000000">main.c</text>
</a>
</g>
</g>
<!-- Node2&#45;&gt;Node4 -->
<g id="edge2" class="edge">
<title>Node2&#45;&gt;Node4</title>
<path fill="none" stroke="#191970" d="M63.6645,-47.3372C68.9654,-38.0605 75.1487,-27.2398 79.4899,-19.6427"/>
<polygon fill="#191970" stroke="#191970" points="60.4966,-45.8266 58.574,-56.2455 66.5743,-49.2996 60.4966,-45.8266"/>
</g>
</g>
</svg>
