<?xml version="1.0" encoding="UTF-8" standalone="no"?>
<!DOCTYPE svg PUBLIC "-//W3C//DTD SVG 1.1//EN"
 "http://www.w3.org/Graphics/SVG/1.1/DTD/svg11.dtd">
<!-- Generated by graphviz version 2.40.1 (20161225.0304)
 -->
<!-- Title: CmdSendLongRep Pages: 1 -->
<svg width="240pt" height="66pt"
 viewBox="0.00 0.00 240.00 66.00" xmlns="http://www.w3.org/2000/svg" xmlns:xlink="http://www.w3.org/1999/xlink">
<g id="graph0" class="graph" transform="scale(1 1) rotate(0) translate(4 62)">
<title>CmdSendLongRep</title>
<polygon fill="#ffffff" stroke="transparent" points="-4,4 -4,-62 236,-62 236,4 -4,4"/>
<!-- Node12 -->
<g id="node1" class="node">
<title>Node12</title>
<polygon fill="#bfbfbf" stroke="#000000" points="0,-19.5 0,-38.5 98,-38.5 98,-19.5 0,-19.5"/>
<text text-anchor="middle" x="49" y="-26.5" font-family="Helvetica,sans-Serif" font-size="10.00" fill="#000000">CmdSendLongRep</text>
</g>
<!-- Node13 -->
<g id="node2" class="node">
<title>Node13</title>
<g id="a_node2"><a xlink:href="group__main.html#ga6b7fdf24cf5690fba147a302022526ea" target="_top" xlink:title="AllocAndRead">
<polygon fill="#ffffff" stroke="#000000" points="144,-38.5 144,-57.5 222,-57.5 222,-38.5 144,-38.5"/>
<text text-anchor="middle" x="183" y="-45.5" font-family="Helvetica,sans-Serif" font-size="10.00" fill="#000000">AllocAndRead</text>
</a>
</g>
</g>
<!-- Node12&#45;&gt;Node13 -->
<g id="edge1" class="edge">
<title>Node12&#45;&gt;Node13</title>
<path fill="none" stroke="#191970" d="M108.1893,-37.3925C120.2964,-39.1092 132.7485,-40.8748 143.935,-42.4609"/>
<polygon fill="#191970" stroke="#191970" points="108.5281,-33.9056 98.1358,-35.967 107.5453,-40.8363 108.5281,-33.9056"/>
</g>
<!-- Node14 -->
<g id="node3" class="node">
<title>Node14</title>
<g id="a_node3"><a xlink:href="group__main.html#ga4c8ce605029fa5c244f8292ffa502f36" target="_top" xlink:title="AllocAndRamRead">
<polygon fill="#ffffff" stroke="#000000" points="134,-.5 134,-19.5 232,-19.5 232,-.5 134,-.5"/>
<text text-anchor="middle" x="183" y="-7.5" font-family="Helvetica,sans-Serif" font-size="10.00" fill="#000000">AllocAndRamRead</text>
</a>
</g>
</g>
<!-- Node12&#45;&gt;Node14 -->
<g id="edge2" class="edge">
<title>Node12&#45;&gt;Node14</title>
<path fill="none" stroke="#191970" d="M108.1174,-20.6177C116.7184,-19.3981 125.4953,-18.1537 133.8702,-16.9662"/>
<polygon fill="#191970" stroke="#191970" points="107.5453,-17.1637 98.1358,-22.033 108.5281,-24.0944 107.5453,-17.1637"/>
</g>
</g>
</svg>
