<?xml version="1.0" encoding="UTF-8" standalone="no"?>
<!DOCTYPE svg PUBLIC "-//W3C//DTD SVG 1.1//EN"
 "http://www.w3.org/Graphics/SVG/1.1/DTD/svg11.dtd">
<!-- Generated by graphviz version 2.40.1 (20161225.0304)
 -->
<!-- Title: cmd Pages: 1 -->
<svg width="131pt" height="66pt"
 viewBox="0.00 0.00 131.00 66.00" xmlns="http://www.w3.org/2000/svg" xmlns:xlink="http://www.w3.org/1999/xlink">
<g id="graph0" class="graph" transform="scale(1 1) rotate(0) translate(4 62)">
<title>cmd</title>
<polygon fill="#ffffff" stroke="transparent" points="-4,4 -4,-62 127,-62 127,4 -4,4"/>
<!-- Node1 -->
<g id="node1" class="node">
<title>Node1</title>
<g id="a_node1"><a xlink:href="group___cmd_ret.html" target="_top" xlink:title="Return values for functions in this module and error codes. ">
<polygon fill="#ffffff" stroke="#000000" points="71,-38.5 71,-57.5 123,-57.5 123,-38.5 71,-38.5"/>
<text text-anchor="middle" x="97" y="-45.5" font-family="Helvetica,sans-Serif" font-size="10.00" fill="#000000">CmdRet</text>
</a>
</g>
</g>
<!-- Node2 -->
<g id="node2" class="node">
<title>Node2</title>
<g id="a_node2"><a xlink:href="group___cmds.html" target="_top" xlink:title="Supported system commands. Also includes OK and ERROR codes. ">
<polygon fill="#ffffff" stroke="#000000" points="76,-.5 76,-19.5 118,-19.5 118,-.5 76,-.5"/>
<text text-anchor="middle" x="97" y="-7.5" font-family="Helvetica,sans-Serif" font-size="10.00" fill="#000000">Cmds</text>
</a>
</g>
</g>
<!-- Node0 -->
<g id="node3" class="node">
<title>Node0</title>
<polygon fill="#bfbfbf" stroke="#000000" points="0,-19.5 0,-38.5 35,-38.5 35,-19.5 0,-19.5"/>
<text text-anchor="middle" x="17.5" y="-26.5" font-family="Helvetica,sans-Serif" font-size="10.00" fill="#000000">cmd</text>
</g>
<!-- Node0&#45;&gt;Node1 -->
<g id="edge1" class="edge">
<title>Node0&#45;&gt;Node1</title>
<path fill="none" stroke="#000000" d="M44.91,-35.5508C53.3474,-37.5673 62.6083,-39.7806 70.9515,-41.7746"/>
<polygon fill="#000000" stroke="#000000" points="45.6833,-32.1371 35.1436,-33.2167 44.0561,-38.9454 45.6833,-32.1371"/>
</g>
<!-- Node0&#45;&gt;Node2 -->
<g id="edge2" class="edge">
<title>Node0&#45;&gt;Node2</title>
<path fill="none" stroke="#000000" d="M45.0746,-22.4098C55.121,-20.0088 66.316,-17.3333 75.7314,-15.0831"/>
<polygon fill="#000000" stroke="#000000" points="44.0561,-19.0546 35.1436,-24.7833 45.6833,-25.8629 44.0561,-19.0546"/>
</g>
</g>
</svg>
