<?xml version="1.0" encoding="UTF-8" standalone="no"?>
<!DOCTYPE svg PUBLIC "-//W3C//DTD SVG 1.1//EN"
 "http://www.w3.org/Graphics/SVG/1.1/DTD/svg11.dtd">
<!-- Generated by graphviz version 2.40.1 (20161225.0304)
 -->
<!-- Title: SCFrameSend Pages: 1 -->
<svg width="359pt" height="142pt"
 viewBox="0.00 0.00 359.00 142.00" xmlns="http://www.w3.org/2000/svg" xmlns:xlink="http://www.w3.org/1999/xlink">
<g id="graph0" class="graph" transform="scale(1 1) rotate(0) translate(4 138)">
<title>SCFrameSend</title>
<polygon fill="#ffffff" stroke="transparent" points="-4,4 -4,-138 355,-138 355,4 -4,4"/>
<!-- Node3 -->
<g id="node1" class="node">
<title>Node3</title>
<polygon fill="#bfbfbf" stroke="#000000" points="0,-76.5 0,-95.5 80,-95.5 80,-76.5 0,-76.5"/>
<text text-anchor="middle" x="40" y="-83.5" font-family="Helvetica,sans-Serif" font-size="10.00" fill="#000000">SCFrameSend</text>
</g>
<!-- Node4 -->
<g id="node2" class="node">
<title>Node4</title>
<g id="a_node2"><a xlink:href="group__cmd.html#gac4db5d4280de8d970add3e7d30428104" target="_top" xlink:title="CmdSend">
<polygon fill="#ffffff" stroke="#000000" points="137,-114.5 137,-133.5 196,-133.5 196,-114.5 137,-114.5"/>
<text text-anchor="middle" x="166.5" y="-121.5" font-family="Helvetica,sans-Serif" font-size="10.00" fill="#000000">CmdSend</text>
</a>
</g>
</g>
<!-- Node3&#45;&gt;Node4 -->
<g id="edge1" class="edge">
<title>Node3&#45;&gt;Node4</title>
<path fill="none" stroke="#191970" d="M81.6152,-98.501C99.6366,-103.9146 120.3223,-110.1284 136.7614,-115.0667"/>
<polygon fill="#191970" stroke="#191970" points="82.5055,-95.114 71.9213,-95.589 80.4916,-101.8181 82.5055,-95.114"/>
</g>
<!-- Node6 -->
<g id="node4" class="node">
<title>Node6</title>
<g id="a_node4"><a xlink:href="group__cmd.html#gaeee7d77f905b33a1f7af82bb62c7ea37" target="_top" xlink:title="CmdSendLongCmd">
<polygon fill="#ffffff" stroke="#000000" points="116,-76.5 116,-95.5 217,-95.5 217,-76.5 116,-76.5"/>
<text text-anchor="middle" x="166.5" y="-83.5" font-family="Helvetica,sans-Serif" font-size="10.00" fill="#000000">CmdSendLongCmd</text>
</a>
</g>
</g>
<!-- Node3&#45;&gt;Node6 -->
<g id="edge3" class="edge">
<title>Node3&#45;&gt;Node6</title>
<path fill="none" stroke="#191970" d="M90.0629,-86C98.4583,-86 107.178,-86 115.5944,-86"/>
<polygon fill="#191970" stroke="#191970" points="90.0254,-82.5001 80.0254,-86 90.0254,-89.5001 90.0254,-82.5001"/>
</g>
<!-- Node8 -->
<g id="node6" class="node">
<title>Node8</title>
<g id="a_node6"><a xlink:href="group__cmd.html#gabf9964113c4cb92254f95d6e98a86b11" target="_top" xlink:title="CmdSendLongRep">
<polygon fill="#ffffff" stroke="#000000" points="117.5,-38.5 117.5,-57.5 215.5,-57.5 215.5,-38.5 117.5,-38.5"/>
<text text-anchor="middle" x="166.5" y="-45.5" font-family="Helvetica,sans-Serif" font-size="10.00" fill="#000000">CmdSendLongRep</text>
</a>
</g>
</g>
<!-- Node3&#45;&gt;Node8 -->
<g id="edge5" class="edge">
<title>Node3&#45;&gt;Node8</title>
<path fill="none" stroke="#191970" d="M81.7294,-73.4647C98.9382,-68.2952 118.5601,-62.4009 134.5889,-57.5859"/>
<polygon fill="#191970" stroke="#191970" points="80.4916,-70.1819 71.9213,-76.411 82.5055,-76.886 80.4916,-70.1819"/>
</g>
<!-- Node5 -->
<g id="node3" class="node">
<title>Node5</title>
<g id="a_node3"><a xlink:href="group__main.html#ga27dc24d1275e01108dc8dc364ff11b12" target="_top" xlink:title="CmdMapperCfg">
<polygon fill="#ffffff" stroke="#000000" points="260,-114.5 260,-133.5 344,-133.5 344,-114.5 260,-114.5"/>
<text text-anchor="middle" x="302" y="-121.5" font-family="Helvetica,sans-Serif" font-size="10.00" fill="#000000">CmdMapperCfg</text>
</a>
</g>
</g>
<!-- Node4&#45;&gt;Node5 -->
<g id="edge2" class="edge">
<title>Node4&#45;&gt;Node5</title>
<path fill="none" stroke="#191970" d="M206.3347,-124C223.2122,-124 242.8909,-124 259.9971,-124"/>
<polygon fill="#191970" stroke="#191970" points="206.2361,-120.5001 196.2361,-124 206.236,-127.5001 206.2361,-120.5001"/>
</g>
<!-- Node7 -->
<g id="node5" class="node">
<title>Node7</title>
<g id="a_node5"><a xlink:href="group__main.html#ga5d25be52d9f0107759a6f897f00e27da" target="_top" xlink:title="AllocAndRamWrite">
<polygon fill="#ffffff" stroke="#000000" points="253,-76.5 253,-95.5 351,-95.5 351,-76.5 253,-76.5"/>
<text text-anchor="middle" x="302" y="-83.5" font-family="Helvetica,sans-Serif" font-size="10.00" fill="#000000">AllocAndRamWrite</text>
</a>
</g>
</g>
<!-- Node6&#45;&gt;Node7 -->
<g id="edge4" class="edge">
<title>Node6&#45;&gt;Node7</title>
<path fill="none" stroke="#191970" d="M227.51,-86C235.9331,-86 244.4965,-86 252.6726,-86"/>
<polygon fill="#191970" stroke="#191970" points="227.3407,-82.5001 217.3407,-86 227.3407,-89.5001 227.3407,-82.5001"/>
</g>
<!-- Node9 -->
<g id="node7" class="node">
<title>Node9</title>
<g id="a_node7"><a xlink:href="group__main.html#ga6b7fdf24cf5690fba147a302022526ea" target="_top" xlink:title="AllocAndRead">
<polygon fill="#ffffff" stroke="#000000" points="263,-38.5 263,-57.5 341,-57.5 341,-38.5 263,-38.5"/>
<text text-anchor="middle" x="302" y="-45.5" font-family="Helvetica,sans-Serif" font-size="10.00" fill="#000000">AllocAndRead</text>
</a>
</g>
</g>
<!-- Node8&#45;&gt;Node9 -->
<g id="edge6" class="edge">
<title>Node8&#45;&gt;Node9</title>
<path fill="none" stroke="#191970" d="M226.0935,-48C238.4933,-48 251.2629,-48 262.7083,-48"/>
<polygon fill="#191970" stroke="#191970" points="225.8019,-44.5001 215.8019,-48 225.8019,-51.5001 225.8019,-44.5001"/>
</g>
<!-- Node10 -->
<g id="node8" class="node">
<title>Node10</title>
<g id="a_node8"><a xlink:href="group__main.html#ga4c8ce605029fa5c244f8292ffa502f36" target="_top" xlink:title="AllocAndRamRead">
<polygon fill="#ffffff" stroke="#000000" points="253,-.5 253,-19.5 351,-19.5 351,-.5 253,-.5"/>
<text text-anchor="middle" x="302" y="-7.5" font-family="Helvetica,sans-Serif" font-size="10.00" fill="#000000">AllocAndRamRead</text>
</a>
</g>
</g>
<!-- Node8&#45;&gt;Node10 -->
<g id="edge7" class="edge">
<title>Node8&#45;&gt;Node10</title>
<path fill="none" stroke="#191970" d="M210.4246,-35.6817C229.0414,-30.4607 250.4087,-24.4684 267.8186,-19.5859"/>
<polygon fill="#191970" stroke="#191970" points="209.3758,-32.3407 200.6924,-38.411 211.266,-39.0807 209.3758,-32.3407"/>
</g>
</g>
</svg>
