<?xml version="1.0" encoding="UTF-8" standalone="no"?>
<!DOCTYPE svg PUBLIC "-//W3C//DTD SVG 1.1//EN"
 "http://www.w3.org/Graphics/SVG/1.1/DTD/svg11.dtd">
<!-- Generated by graphviz version 2.40.1 (20161225.0304)
 -->
<!-- Title: CmdMapperCfg Pages: 1 -->
<svg width="303pt" height="28pt"
 viewBox="0.00 0.00 303.00 28.00" xmlns="http://www.w3.org/2000/svg" xmlns:xlink="http://www.w3.org/1999/xlink">
<g id="graph0" class="graph" transform="scale(1 1) rotate(0) translate(4 24)">
<title>CmdMapperCfg</title>
<polygon fill="#ffffff" stroke="transparent" points="-4,4 -4,-24 299,-24 299,4 -4,4"/>
<!-- Node13 -->
<g id="node1" class="node">
<title>Node13</title>
<polygon fill="#bfbfbf" stroke="#000000" points="0,-.5 0,-19.5 84,-19.5 84,-.5 0,-.5"/>
<text text-anchor="middle" x="42" y="-7.5" font-family="Helvetica,sans-Serif" font-size="10.00" fill="#000000">CmdMapperCfg</text>
</g>
<!-- Node14 -->
<g id="node2" class="node">
<title>Node14</title>
<g id="a_node2"><a xlink:href="group__cmd.html#gac4db5d4280de8d970add3e7d30428104" target="_top" xlink:title="CmdSend">
<polygon fill="#ffffff" stroke="#000000" points="120,-.5 120,-19.5 179,-19.5 179,-.5 120,-.5"/>
<text text-anchor="middle" x="149.5" y="-7.5" font-family="Helvetica,sans-Serif" font-size="10.00" fill="#000000">CmdSend</text>
</a>
</g>
</g>
<!-- Node13&#45;&gt;Node14 -->
<g id="edge1" class="edge">
<title>Node13&#45;&gt;Node14</title>
<path fill="none" stroke="#191970" d="M84.1783,-10C92.5328,-10 101.2789,-10 109.5564,-10"/>
<polygon fill="#191970" stroke="#191970" points="109.7259,-13.5001 119.7259,-10 109.7258,-6.5001 109.7259,-13.5001"/>
</g>
<!-- Node15 -->
<g id="node3" class="node">
<title>Node15</title>
<g id="a_node3"><a xlink:href="group__spi-com.html#gaa3c420e1880d86cf99e0939bdd453752" target="_top" xlink:title="SCFrameSend">
<polygon fill="#ffffff" stroke="#000000" points="215,-.5 215,-19.5 295,-19.5 295,-.5 215,-.5"/>
<text text-anchor="middle" x="255" y="-7.5" font-family="Helvetica,sans-Serif" font-size="10.00" fill="#000000">SCFrameSend</text>
</a>
</g>
</g>
<!-- Node14&#45;&gt;Node15 -->
<g id="edge2" class="edge">
<title>Node14&#45;&gt;Node15</title>
<path fill="none" stroke="#191970" d="M179.1684,-10C187.1409,-10 195.9896,-10 204.7463,-10"/>
<polygon fill="#191970" stroke="#191970" points="204.9258,-13.5001 214.9257,-10 204.9257,-6.5001 204.9258,-13.5001"/>
</g>
</g>
</svg>
