<?xml version="1.0" encoding="UTF-8" standalone="no"?>
<!DOCTYPE svg PUBLIC "-//W3C//DTD SVG 1.1//EN"
 "http://www.w3.org/Graphics/SVG/1.1/DTD/svg11.dtd">
<!-- Generated by graphviz version 2.40.1 (20161225.0304)
 -->
<!-- Title: AllocAndRamWrite Pages: 1 -->
<svg width="359pt" height="28pt"
 viewBox="0.00 0.00 359.00 28.00" xmlns="http://www.w3.org/2000/svg" xmlns:xlink="http://www.w3.org/1999/xlink">
<g id="graph0" class="graph" transform="scale(1 1) rotate(0) translate(4 24)">
<title>AllocAndRamWrite</title>
<polygon fill="#ffffff" stroke="transparent" points="-4,4 -4,-24 355,-24 355,4 -4,4"/>
<!-- Node4 -->
<g id="node1" class="node">
<title>Node4</title>
<polygon fill="#bfbfbf" stroke="#000000" points="0,-.5 0,-19.5 98,-19.5 98,-.5 0,-.5"/>
<text text-anchor="middle" x="49" y="-7.5" font-family="Helvetica,sans-Serif" font-size="10.00" fill="#000000">AllocAndRamWrite</text>
</g>
<!-- Node5 -->
<g id="node2" class="node">
<title>Node5</title>
<g id="a_node2"><a xlink:href="group__cmd.html#gaeee7d77f905b33a1f7af82bb62c7ea37" target="_top" xlink:title="CmdSendLongCmd">
<polygon fill="#ffffff" stroke="#000000" points="134,-.5 134,-19.5 235,-19.5 235,-.5 134,-.5"/>
<text text-anchor="middle" x="184.5" y="-7.5" font-family="Helvetica,sans-Serif" font-size="10.00" fill="#000000">CmdSendLongCmd</text>
</a>
</g>
</g>
<!-- Node4&#45;&gt;Node5 -->
<g id="edge1" class="edge">
<title>Node4&#45;&gt;Node5</title>
<path fill="none" stroke="#191970" d="M98.3019,-10C106.479,-10 115.0441,-10 123.4693,-10"/>
<polygon fill="#191970" stroke="#191970" points="123.6412,-13.5001 133.6412,-10 123.6412,-6.5001 123.6412,-13.5001"/>
</g>
<!-- Node6 -->
<g id="node3" class="node">
<title>Node6</title>
<g id="a_node3"><a xlink:href="group__spi-com.html#gaa3c420e1880d86cf99e0939bdd453752" target="_top" xlink:title="SCFrameSend">
<polygon fill="#ffffff" stroke="#000000" points="271,-.5 271,-19.5 351,-19.5 351,-.5 271,-.5"/>
<text text-anchor="middle" x="311" y="-7.5" font-family="Helvetica,sans-Serif" font-size="10.00" fill="#000000">SCFrameSend</text>
</a>
</g>
</g>
<!-- Node5&#45;&gt;Node6 -->
<g id="edge2" class="edge">
<title>Node5&#45;&gt;Node6</title>
<path fill="none" stroke="#191970" d="M235.2235,-10C243.6287,-10 252.3414,-10 260.7352,-10"/>
<polygon fill="#191970" stroke="#191970" points="260.7737,-13.5001 270.7736,-10 260.7736,-6.5001 260.7737,-13.5001"/>
</g>
</g>
</svg>
