<?xml version="1.0" encoding="UTF-8" standalone="no"?>
<!DOCTYPE svg PUBLIC "-//W3C//DTD SVG 1.1//EN"
 "http://www.w3.org/Graphics/SVG/1.1/DTD/svg11.dtd">
<!-- Generated by graphviz version 2.40.1 (20161225.0304)
 -->
<!-- Title: AllocAndRead Pages: 1 -->
<svg width="336pt" height="66pt"
 viewBox="0.00 0.00 336.00 66.00" xmlns="http://www.w3.org/2000/svg" xmlns:xlink="http://www.w3.org/1999/xlink">
<g id="graph0" class="graph" transform="scale(1 1) rotate(0) translate(4 62)">
<title>AllocAndRead</title>
<polygon fill="#ffffff" stroke="transparent" points="-4,4 -4,-62 332,-62 332,4 -4,4"/>
<!-- Node8 -->
<g id="node1" class="node">
<title>Node8</title>
<polygon fill="#bfbfbf" stroke="#000000" points="0,-19.5 0,-38.5 78,-38.5 78,-19.5 0,-19.5"/>
<text text-anchor="middle" x="39" y="-26.5" font-family="Helvetica,sans-Serif" font-size="10.00" fill="#000000">AllocAndRead</text>
</g>
<!-- Node9 -->
<g id="node2" class="node">
<title>Node9</title>
<g id="a_node2"><a xlink:href="group__cmd.html#gabf9964113c4cb92254f95d6e98a86b11" target="_top" xlink:title="CmdSendLongRep">
<polygon fill="#ffffff" stroke="#000000" points="114,-38.5 114,-57.5 212,-57.5 212,-38.5 114,-38.5"/>
<text text-anchor="middle" x="163" y="-45.5" font-family="Helvetica,sans-Serif" font-size="10.00" fill="#000000">CmdSendLongRep</text>
</a>
</g>
</g>
<!-- Node8&#45;&gt;Node9 -->
<g id="edge1" class="edge">
<title>Node8&#45;&gt;Node9</title>
<path fill="none" stroke="#191970" d="M78.2344,-35.0117C86.394,-36.262 95.1646,-37.6059 103.8599,-38.9382"/>
<polygon fill="#191970" stroke="#191970" points="103.5771,-42.4357 113.9919,-40.4907 104.6374,-35.5164 103.5771,-42.4357"/>
</g>
<!-- Node11 -->
<g id="node4" class="node">
<title>Node11</title>
<g id="a_node4"><a xlink:href="group__progbar.html#ga54b6cf31dd0c8f838cbd756ed9666f3c" target="_top" xlink:title="ProgBarDraw">
<polygon fill="#ffffff" stroke="#000000" points="126,-.5 126,-19.5 200,-19.5 200,-.5 126,-.5"/>
<text text-anchor="middle" x="163" y="-7.5" font-family="Helvetica,sans-Serif" font-size="10.00" fill="#000000">ProgBarDraw</text>
</a>
</g>
</g>
<!-- Node8&#45;&gt;Node11 -->
<g id="edge3" class="edge">
<title>Node8&#45;&gt;Node11</title>
<path fill="none" stroke="#191970" d="M78.2344,-22.9883C90.0969,-21.1706 103.2506,-19.1552 115.5874,-17.2648"/>
<polygon fill="#191970" stroke="#191970" points="116.3574,-20.6878 125.7119,-15.7135 115.2971,-13.7685 116.3574,-20.6878"/>
</g>
<!-- Node10 -->
<g id="node3" class="node">
<title>Node10</title>
<g id="a_node3"><a xlink:href="group__spi-com.html#gaa3c420e1880d86cf99e0939bdd453752" target="_top" xlink:title="SCFrameSend">
<polygon fill="#ffffff" stroke="#000000" points="248,-38.5 248,-57.5 328,-57.5 328,-38.5 248,-38.5"/>
<text text-anchor="middle" x="288" y="-45.5" font-family="Helvetica,sans-Serif" font-size="10.00" fill="#000000">SCFrameSend</text>
</a>
</g>
</g>
<!-- Node9&#45;&gt;Node10 -->
<g id="edge2" class="edge">
<title>Node9&#45;&gt;Node10</title>
<path fill="none" stroke="#191970" d="M212.0445,-48C220.5055,-48 229.3119,-48 237.8028,-48"/>
<polygon fill="#191970" stroke="#191970" points="237.959,-51.5001 247.959,-48 237.959,-44.5001 237.959,-51.5001"/>
</g>
</g>
</svg>
