<?xml version="1.0" encoding="UTF-8" standalone="no"?>
<!DOCTYPE svg PUBLIC "-//W3C//DTD SVG 1.1//EN"
 "http://www.w3.org/Graphics/SVG/1.1/DTD/svg11.dtd">
<!-- Generated by graphviz version 2.40.1 (20161225.0304)
 -->
<!-- Title: latticeflash.h Pages: 1 -->
<svg width="144pt" height="84pt"
 viewBox="0.00 0.00 144.00 84.00" xmlns="http://www.w3.org/2000/svg" xmlns:xlink="http://www.w3.org/1999/xlink">
<g id="graph0" class="graph" transform="scale(1 1) rotate(0) translate(4 80)">
<title>latticeflash.h</title>
<polygon fill="#ffffff" stroke="transparent" points="-4,4 -4,-80 140,-80 140,4 -4,4"/>
<!-- Node3 -->
<g id="node1" class="node">
<title>Node3</title>
<polygon fill="#bfbfbf" stroke="#000000" points="38,-56.5 38,-75.5 110,-75.5 110,-56.5 38,-56.5"/>
<text text-anchor="middle" x="74" y="-63.5" font-family="Helvetica,sans-Serif" font-size="10.00" fill="#000000">latticeflash.h</text>
</g>
<!-- Node4 -->
<g id="node2" class="node">
<title>Node4</title>
<g id="a_node2"><a xlink:href="latticeflash_8c.html" target="_top" xlink:title="Flash specified xcf file to FPGA. ">
<polygon fill="#ffffff" stroke="#000000" points="0,-.5 0,-19.5 72,-19.5 72,-.5 0,-.5"/>
<text text-anchor="middle" x="36" y="-7.5" font-family="Helvetica,sans-Serif" font-size="10.00" fill="#000000">latticeflash.c</text>
</a>
</g>
</g>
<!-- Node3&#45;&gt;Node4 -->
<g id="edge1" class="edge">
<title>Node3&#45;&gt;Node4</title>
<path fill="none" stroke="#191970" d="M61.7321,-47.9209C55.3512,-38.5176 47.8069,-27.3997 42.5432,-19.6427"/>
<polygon fill="#191970" stroke="#191970" points="58.8697,-49.936 67.3809,-56.2455 64.662,-46.0055 58.8697,-49.936"/>
</g>
<!-- Node5 -->
<g id="node3" class="node">
<title>Node5</title>
<g id="a_node3"><a xlink:href="main_8c.html" target="_top" xlink:title="Command Line Interface for the mojo&#45;nes&#45;mk3 programmer. ">
<polygon fill="#ffffff" stroke="#000000" points="90,-.5 90,-19.5 136,-19.5 136,-.5 90,-.5"/>
<text text-anchor="middle" x="113" y="-7.5" font-family="Helvetica,sans-Serif" font-size="10.00" fill="#000000">main.c</text>
</a>
</g>
</g>
<!-- Node3&#45;&gt;Node5 -->
<g id="edge2" class="edge">
<title>Node3&#45;&gt;Node5</title>
<path fill="none" stroke="#191970" d="M86.5908,-47.9209C93.1395,-38.5176 100.8824,-27.3997 106.2846,-19.6427"/>
<polygon fill="#191970" stroke="#191970" points="83.6361,-46.0392 80.7933,-56.2455 89.3804,-50.0397 83.6361,-46.0392"/>
</g>
</g>
</svg>
