<?xml version="1.0" encoding="UTF-8" standalone="no"?>
<!DOCTYPE svg PUBLIC "-//W3C//DTD SVG 1.1//EN"
 "http://www.w3.org/Graphics/SVG/1.1/DTD/svg11.dtd">
<!-- Generated by graphviz version 2.40.1 (20161225.0304)
 -->
<!-- Title: latticeflash.c Pages: 1 -->
<svg width="220pt" height="196pt"
 viewBox="0.00 0.00 220.00 196.00" xmlns="http://www.w3.org/2000/svg" xmlns:xlink="http://www.w3.org/1999/xlink">
<g id="graph0" class="graph" transform="scale(1 1) rotate(0) translate(4 192)">
<title>latticeflash.c</title>
<polygon fill="#ffffff" stroke="transparent" points="-4,4 -4,-192 216,-192 216,4 -4,4"/>
<!-- Node0 -->
<g id="node1" class="node">
<title>Node0</title>
<polygon fill="#bfbfbf" stroke="#000000" points="83,-168.5 83,-187.5 155,-187.5 155,-168.5 83,-168.5"/>
<text text-anchor="middle" x="119" y="-175.5" font-family="Helvetica,sans-Serif" font-size="10.00" fill="#000000">latticeflash.c</text>
</g>
<!-- Node1 -->
<g id="node2" class="node">
<title>Node1</title>
<g id="a_node2"><a xlink:href="latticeflash_8h.html" target="_top" xlink:title="Flash specified xcf file to FPGA. ">
<polygon fill="#ffffff" stroke="#000000" points="0,-112.5 0,-131.5 72,-131.5 72,-112.5 0,-112.5"/>
<text text-anchor="middle" x="36" y="-119.5" font-family="Helvetica,sans-Serif" font-size="10.00" fill="#000000">latticeflash.h</text>
</a>
</g>
</g>
<!-- Node0&#45;&gt;Node1 -->
<g id="edge1" class="edge">
<title>Node0&#45;&gt;Node1</title>
<path fill="none" stroke="#191970" d="M104.5425,-168.2455C91.9268,-159.7337 73.4056,-147.2375 58.7955,-137.3801"/>
<polygon fill="#191970" stroke="#191970" points="60.5391,-134.3343 50.2918,-131.6427 56.6239,-140.1371 60.5391,-134.3343"/>
</g>
<!-- Node4 -->
<g id="node5" class="node">
<title>Node4</title>
<g id="a_node5"><a xlink:href="pspawn_8h.html" target="_top" xlink:title="Spawns a child process using a pseudo terminal. ">
<polygon fill="#ffffff" stroke="#000000" points="90,-112.5 90,-131.5 148,-131.5 148,-112.5 90,-112.5"/>
<text text-anchor="middle" x="119" y="-119.5" font-family="Helvetica,sans-Serif" font-size="10.00" fill="#000000">pspawn.h</text>
</a>
</g>
</g>
<!-- Node0&#45;&gt;Node4 -->
<g id="edge4" class="edge">
<title>Node0&#45;&gt;Node4</title>
<path fill="none" stroke="#191970" d="M119,-168.2455C119,-160.9382 119,-150.6944 119,-141.7046"/>
<polygon fill="#191970" stroke="#191970" points="122.5001,-141.6426 119,-131.6427 115.5001,-141.6427 122.5001,-141.6426"/>
</g>
<!-- Node5 -->
<g id="node6" class="node">
<title>Node5</title>
<polygon fill="#ffffff" stroke="#bfbfbf" points="166,-112.5 166,-131.5 212,-131.5 212,-112.5 166,-112.5"/>
<text text-anchor="middle" x="189" y="-119.5" font-family="Helvetica,sans-Serif" font-size="10.00" fill="#000000">stdio.h</text>
</g>
<!-- Node0&#45;&gt;Node5 -->
<g id="edge5" class="edge">
<title>Node0&#45;&gt;Node5</title>
<path fill="none" stroke="#191970" d="M131.1931,-168.2455C141.6321,-159.8943 156.8655,-147.7076 169.074,-137.9408"/>
<polygon fill="#191970" stroke="#191970" points="171.3244,-140.6227 176.9467,-131.6427 166.9515,-135.1566 171.3244,-140.6227"/>
</g>
<!-- Node2 -->
<g id="node3" class="node">
<title>Node2</title>
<g id="a_node3"><a xlink:href="util_8h.html" target="_top" xlink:title="General purpose utiities. ">
<polygon fill="#ffffff" stroke="#000000" points="17,-56.5 17,-75.5 55,-75.5 55,-56.5 17,-56.5"/>
<text text-anchor="middle" x="36" y="-63.5" font-family="Helvetica,sans-Serif" font-size="10.00" fill="#000000">util.h</text>
</a>
</g>
</g>
<!-- Node1&#45;&gt;Node2 -->
<g id="edge2" class="edge">
<title>Node1&#45;&gt;Node2</title>
<path fill="none" stroke="#191970" d="M36,-112.2455C36,-104.9382 36,-94.6944 36,-85.7046"/>
<polygon fill="#191970" stroke="#191970" points="39.5001,-85.6426 36,-75.6427 32.5001,-85.6427 39.5001,-85.6426"/>
</g>
<!-- Node3 -->
<g id="node4" class="node">
<title>Node3</title>
<polygon fill="#ffffff" stroke="#bfbfbf" points="10.5,-.5 10.5,-19.5 61.5,-19.5 61.5,-.5 10.5,-.5"/>
<text text-anchor="middle" x="36" y="-7.5" font-family="Helvetica,sans-Serif" font-size="10.00" fill="#000000">unistd.h</text>
</g>
<!-- Node2&#45;&gt;Node3 -->
<g id="edge3" class="edge">
<title>Node2&#45;&gt;Node3</title>
<path fill="none" stroke="#191970" d="M36,-56.2455C36,-48.9382 36,-38.6944 36,-29.7046"/>
<polygon fill="#191970" stroke="#191970" points="39.5001,-29.6426 36,-19.6427 32.5001,-29.6427 39.5001,-29.6426"/>
</g>
</g>
</svg>
