<?xml version="1.0" encoding="UTF-8" standalone="no"?>
<!DOCTYPE svg PUBLIC "-//W3C//DTD SVG 1.1//EN"
 "http://www.w3.org/Graphics/SVG/1.1/DTD/svg11.dtd">
<!-- Generated by graphviz version 2.40.1 (20161225.0304)
 -->
<!-- Title: main.c Pages: 1 -->
<svg width="908pt" height="196pt"
 viewBox="0.00 0.00 907.50 196.00" xmlns="http://www.w3.org/2000/svg" xmlns:xlink="http://www.w3.org/1999/xlink">
<g id="graph0" class="graph" transform="scale(1 1) rotate(0) translate(4 192)">
<title>main.c</title>
<polygon fill="#ffffff" stroke="transparent" points="-4,4 -4,-192 903.5,-192 903.5,4 -4,4"/>
<!-- Node0 -->
<g id="node1" class="node">
<title>Node0</title>
<polygon fill="#bfbfbf" stroke="#000000" points="416,-168.5 416,-187.5 462,-187.5 462,-168.5 416,-168.5"/>
<text text-anchor="middle" x="439" y="-175.5" font-family="Helvetica,sans-Serif" font-size="10.00" fill="#000000">main.c</text>
</g>
<!-- Node1 -->
<g id="node2" class="node">
<title>Node1</title>
<g id="a_node2"><a xlink:href="util_8h.html" target="_top" xlink:title="General purpose utiities. ">
<polygon fill="#ffffff" stroke="#000000" points="793,-56.5 793,-75.5 831,-75.5 831,-56.5 793,-56.5"/>
<text text-anchor="middle" x="812" y="-63.5" font-family="Helvetica,sans-Serif" font-size="10.00" fill="#000000">util.h</text>
</a>
</g>
</g>
<!-- Node0&#45;&gt;Node1 -->
<g id="edge1" class="edge">
<title>Node0&#45;&gt;Node1</title>
<path fill="none" stroke="#191970" d="M462.1661,-176.4549C536.8374,-171.2761 767.8228,-153.6343 793,-132 806.116,-120.7297 810.469,-101.0463 811.7783,-86.0995"/>
<polygon fill="#191970" stroke="#191970" points="815.2887,-85.9697 812.2809,-75.8108 808.297,-85.6281 815.2887,-85.9697"/>
</g>
<!-- Node3 -->
<g id="node4" class="node">
<title>Node3</title>
<polygon fill="#ffffff" stroke="#bfbfbf" points="62,-112.5 62,-131.5 124,-131.5 124,-112.5 62,-112.5"/>
<text text-anchor="middle" x="93" y="-119.5" font-family="Helvetica,sans-Serif" font-size="10.00" fill="#000000">sys/ioctl.h</text>
</g>
<!-- Node0&#45;&gt;Node3 -->
<g id="edge3" class="edge">
<title>Node0&#45;&gt;Node3</title>
<path fill="none" stroke="#191970" d="M415.837,-175.2876C366.0911,-169.2992 245.199,-153.8742 134.3826,-132.1322"/>
<polygon fill="#191970" stroke="#191970" points="134.8688,-128.6605 124.3787,-130.1464 133.5058,-135.5265 134.8688,-128.6605"/>
</g>
<!-- Node4 -->
<g id="node5" class="node">
<title>Node4</title>
<polygon fill="#ffffff" stroke="#bfbfbf" points="142,-112.5 142,-131.5 192,-131.5 192,-112.5 142,-112.5"/>
<text text-anchor="middle" x="167" y="-119.5" font-family="Helvetica,sans-Serif" font-size="10.00" fill="#000000">signal.h</text>
</g>
<!-- Node0&#45;&gt;Node4 -->
<g id="edge4" class="edge">
<title>Node0&#45;&gt;Node4</title>
<path fill="none" stroke="#191970" d="M415.7595,-173.8582C373.741,-166.2707 282.402,-149.3226 206,-132 204.7346,-131.7131 203.4477,-131.4152 202.149,-131.1095"/>
<polygon fill="#191970" stroke="#191970" points="202.6698,-127.6339 192.125,-128.663 201.01,-134.4343 202.6698,-127.6339"/>
</g>
<!-- Node5 -->
<g id="node6" class="node">
<title>Node5</title>
<polygon fill="#ffffff" stroke="#bfbfbf" points="96.5,-56.5 96.5,-75.5 145.5,-75.5 145.5,-56.5 96.5,-56.5"/>
<text text-anchor="middle" x="121" y="-63.5" font-family="Helvetica,sans-Serif" font-size="10.00" fill="#000000">stdint.h</text>
</g>
<!-- Node0&#45;&gt;Node5 -->
<g id="edge5" class="edge">
<title>Node0&#45;&gt;Node5</title>
<path fill="none" stroke="#191970" d="M415.8805,-174.8654C377.9762,-169.249 300.666,-155.7776 239,-132 229.4319,-128.3107 177.9425,-98.9044 146.2226,-80.6099"/>
<polygon fill="#191970" stroke="#191970" points="147.8763,-77.5232 137.4664,-75.5525 144.3752,-83.5848 147.8763,-77.5232"/>
</g>
<!-- Node6 -->
<g id="node7" class="node">
<title>Node6</title>
<polygon fill="#ffffff" stroke="#bfbfbf" points="248,-112.5 248,-131.5 300,-131.5 300,-112.5 248,-112.5"/>
<text text-anchor="middle" x="274" y="-119.5" font-family="Helvetica,sans-Serif" font-size="10.00" fill="#000000">getopt.h</text>
</g>
<!-- Node0&#45;&gt;Node6 -->
<g id="edge6" class="edge">
<title>Node0&#45;&gt;Node6</title>
<path fill="none" stroke="#191970" d="M415.7095,-170.0953C388.0964,-160.7236 341.7792,-145.0039 309.6471,-134.0984"/>
<polygon fill="#191970" stroke="#191970" points="310.7612,-130.7805 300.1668,-130.8809 308.5114,-137.4091 310.7612,-130.7805"/>
</g>
<!-- Node7 -->
<g id="node8" class="node">
<title>Node7</title>
<polygon fill="#ffffff" stroke="#bfbfbf" points="318.5,-112.5 318.5,-131.5 365.5,-131.5 365.5,-112.5 318.5,-112.5"/>
<text text-anchor="middle" x="342" y="-119.5" font-family="Helvetica,sans-Serif" font-size="10.00" fill="#000000">errno.h</text>
</g>
<!-- Node0&#45;&gt;Node7 -->
<g id="edge7" class="edge">
<title>Node0&#45;&gt;Node7</title>
<path fill="none" stroke="#191970" d="M422.1039,-168.2455C407.082,-159.5731 384.8957,-146.7645 367.679,-136.825"/>
<polygon fill="#191970" stroke="#191970" points="369.1128,-133.6114 358.7025,-131.6427 365.6129,-139.6737 369.1128,-133.6114"/>
</g>
<!-- Node8 -->
<g id="node9" class="node">
<title>Node8</title>
<polygon fill="#ffffff" stroke="#bfbfbf" points="384,-112.5 384,-131.5 430,-131.5 430,-112.5 384,-112.5"/>
<text text-anchor="middle" x="407" y="-119.5" font-family="Helvetica,sans-Serif" font-size="10.00" fill="#000000">stdio.h</text>
</g>
<!-- Node0&#45;&gt;Node8 -->
<g id="edge8" class="edge">
<title>Node0&#45;&gt;Node8</title>
<path fill="none" stroke="#191970" d="M433.426,-168.2455C429.0669,-160.617 422.8789,-149.7881 417.5867,-140.5267"/>
<polygon fill="#191970" stroke="#191970" points="420.5104,-138.5886 412.5101,-131.6427 414.4327,-142.0616 420.5104,-138.5886"/>
</g>
<!-- Node9 -->
<g id="node10" class="node">
<title>Node9</title>
<polygon fill="#ffffff" stroke="#bfbfbf" points="448,-112.5 448,-131.5 496,-131.5 496,-112.5 448,-112.5"/>
<text text-anchor="middle" x="472" y="-119.5" font-family="Helvetica,sans-Serif" font-size="10.00" fill="#000000">stdlib.h</text>
</g>
<!-- Node0&#45;&gt;Node9 -->
<g id="edge9" class="edge">
<title>Node0&#45;&gt;Node9</title>
<path fill="none" stroke="#191970" d="M444.7482,-168.2455C449.2435,-160.617 455.6248,-149.7881 461.0825,-140.5267"/>
<polygon fill="#191970" stroke="#191970" points="464.2561,-142.035 466.3177,-131.6427 458.2253,-138.4811 464.2561,-142.035"/>
</g>
<!-- Node10 -->
<g id="node11" class="node">
<title>Node10</title>
<polygon fill="#ffffff" stroke="#bfbfbf" points="514,-112.5 514,-131.5 562,-131.5 562,-112.5 514,-112.5"/>
<text text-anchor="middle" x="538" y="-119.5" font-family="Helvetica,sans-Serif" font-size="10.00" fill="#000000">limits.h</text>
</g>
<!-- Node0&#45;&gt;Node10 -->
<g id="edge10" class="edge">
<title>Node0&#45;&gt;Node10</title>
<path fill="none" stroke="#191970" d="M456.2445,-168.2455C471.5761,-159.5731 494.2199,-146.7645 511.7916,-136.825"/>
<polygon fill="#191970" stroke="#191970" points="513.9724,-139.6126 520.9531,-131.6427 510.5259,-133.5198 513.9724,-139.6126"/>
</g>
<!-- Node11 -->
<g id="node12" class="node">
<title>Node11</title>
<polygon fill="#ffffff" stroke="#bfbfbf" points="580,-112.5 580,-131.5 620,-131.5 620,-112.5 580,-112.5"/>
<text text-anchor="middle" x="600" y="-119.5" font-family="Helvetica,sans-Serif" font-size="10.00" fill="#000000">glib.h</text>
</g>
<!-- Node0&#45;&gt;Node11 -->
<g id="edge11" class="edge">
<title>Node0&#45;&gt;Node11</title>
<path fill="none" stroke="#191970" d="M462.0674,-169.9766C490.4692,-160.0977 538.7732,-143.2963 570.0245,-132.4263"/>
<polygon fill="#191970" stroke="#191970" points="571.2299,-135.7128 579.525,-129.1217 568.9302,-129.1013 571.2299,-135.7128"/>
</g>
<!-- Node12 -->
<g id="node13" class="node">
<title>Node12</title>
<g id="a_node13"><a xlink:href="progbar_8h.html" target="_top" xlink:title="Draw progress bars for command line applications. ">
<polygon fill="#ffffff" stroke="#000000" points="638,-112.5 638,-131.5 694,-131.5 694,-112.5 638,-112.5"/>
<text text-anchor="middle" x="666" y="-119.5" font-family="Helvetica,sans-Serif" font-size="10.00" fill="#000000">progbar.h</text>
</a>
</g>
</g>
<!-- Node0&#45;&gt;Node12 -->
<g id="edge12" class="edge">
<title>Node0&#45;&gt;Node12</title>
<path fill="none" stroke="#191970" d="M462.1545,-172.6024C496.2358,-164.613 562.1472,-148.9927 627.6572,-132.2992"/>
<polygon fill="#191970" stroke="#191970" points="628.9177,-135.5895 637.7385,-129.7207 627.1831,-128.8078 628.9177,-135.5895"/>
</g>
<!-- Node13 -->
<g id="node14" class="node">
<title>Node13</title>
<g id="a_node14"><a xlink:href="cmd_8h.html" target="_top" xlink:title="Allows sending commands to the programmer, and receiving results. ">
<polygon fill="#ffffff" stroke="#000000" points="0,-112.5 0,-131.5 44,-131.5 44,-112.5 0,-112.5"/>
<text text-anchor="middle" x="22" y="-119.5" font-family="Helvetica,sans-Serif" font-size="10.00" fill="#000000">cmd.h</text>
</a>
</g>
</g>
<!-- Node0&#45;&gt;Node13 -->
<g id="edge13" class="edge">
<title>Node0&#45;&gt;Node13</title>
<path fill="none" stroke="#191970" d="M415.6807,-176.7955C356.6027,-173.4139 196.2409,-162.1769 54.3895,-131.9427"/>
<polygon fill="#191970" stroke="#191970" points="54.7248,-128.434 44.2099,-129.7329 53.2397,-135.2747 54.7248,-128.434"/>
</g>
<!-- Node14 -->
<g id="node15" class="node">
<title>Node14</title>
<g id="a_node15"><a xlink:href="avrflash_8h.html" target="_top" xlink:title="Flashes elf files to programmer MCU or cart CIC. ">
<polygon fill="#ffffff" stroke="#000000" points="840.5,-112.5 840.5,-131.5 899.5,-131.5 899.5,-112.5 840.5,-112.5"/>
<text text-anchor="middle" x="870" y="-119.5" font-family="Helvetica,sans-Serif" font-size="10.00" fill="#000000">avrflash.h</text>
</a>
</g>
</g>
<!-- Node0&#45;&gt;Node14 -->
<g id="edge15" class="edge">
<title>Node0&#45;&gt;Node14</title>
<path fill="none" stroke="#191970" d="M462.2418,-176.0966C522.5665,-170.9706 688.9831,-155.6458 826,-132 827.4474,-131.7502 828.9189,-131.4834 830.403,-131.2033"/>
<polygon fill="#191970" stroke="#191970" points="831.1582,-134.6215 840.2631,-129.2039 829.767,-127.7611 831.1582,-134.6215"/>
</g>
<!-- Node15 -->
<g id="node16" class="node">
<title>Node15</title>
<g id="a_node16"><a xlink:href="latticeflash_8h.html" target="_top" xlink:title="Flash specified xcf file to FPGA. ">
<polygon fill="#ffffff" stroke="#000000" points="712,-112.5 712,-131.5 784,-131.5 784,-112.5 712,-112.5"/>
<text text-anchor="middle" x="748" y="-119.5" font-family="Helvetica,sans-Serif" font-size="10.00" fill="#000000">latticeflash.h</text>
</a>
</g>
</g>
<!-- Node0&#45;&gt;Node15 -->
<g id="edge17" class="edge">
<title>Node0&#45;&gt;Node15</title>
<path fill="none" stroke="#191970" d="M462.0195,-174.356C506.3893,-167.2541 607.0418,-150.7649 701.6609,-132.2002"/>
<polygon fill="#191970" stroke="#191970" points="702.5484,-135.5927 711.681,-130.2218 701.1924,-128.7252 702.5484,-135.5927"/>
</g>
<!-- Node2 -->
<g id="node3" class="node">
<title>Node2</title>
<polygon fill="#ffffff" stroke="#bfbfbf" points="786.5,-.5 786.5,-19.5 837.5,-19.5 837.5,-.5 786.5,-.5"/>
<text text-anchor="middle" x="812" y="-7.5" font-family="Helvetica,sans-Serif" font-size="10.00" fill="#000000">unistd.h</text>
</g>
<!-- Node1&#45;&gt;Node2 -->
<g id="edge2" class="edge">
<title>Node1&#45;&gt;Node2</title>
<path fill="none" stroke="#191970" d="M812,-56.2455C812,-48.9382 812,-38.6944 812,-29.7046"/>
<polygon fill="#191970" stroke="#191970" points="815.5001,-29.6426 812,-19.6427 808.5001,-29.6427 815.5001,-29.6426"/>
</g>
<!-- Node13&#45;&gt;Node5 -->
<g id="edge14" class="edge">
<title>Node13&#45;&gt;Node5</title>
<path fill="none" stroke="#191970" d="M39.2445,-112.2455C54.5761,-103.5731 77.2199,-90.7645 94.7916,-80.825"/>
<polygon fill="#191970" stroke="#191970" points="96.9724,-83.6126 103.9531,-75.6427 93.5259,-77.5198 96.9724,-83.6126"/>
</g>
<!-- Node14&#45;&gt;Node1 -->
<g id="edge16" class="edge">
<title>Node14&#45;&gt;Node1</title>
<path fill="none" stroke="#191970" d="M859.8972,-112.2455C851.4972,-104.1352 839.3506,-92.4075 829.3916,-82.7919"/>
<polygon fill="#191970" stroke="#191970" points="831.6122,-80.0707 821.9871,-75.6427 826.75,-85.1066 831.6122,-80.0707"/>
</g>
<!-- Node15&#45;&gt;Node1 -->
<g id="edge18" class="edge">
<title>Node15&#45;&gt;Node1</title>
<path fill="none" stroke="#191970" d="M759.1479,-112.2455C768.5087,-104.0549 782.0858,-92.1749 793.1349,-82.5069"/>
<polygon fill="#191970" stroke="#191970" points="795.7588,-84.8618 800.9798,-75.6427 791.1492,-79.5937 795.7588,-84.8618"/>
</g>
</g>
</svg>
