<?xml version="1.0" encoding="UTF-8" standalone="no"?>
<!DOCTYPE svg PUBLIC "-//W3C//DTD SVG 1.1//EN"
 "http://www.w3.org/Graphics/SVG/1.1/DTD/svg11.dtd">
<!-- Generated by graphviz version 2.40.1 (20161225.0304)
 -->
<!-- Title: progbar.h Pages: 1 -->
<svg width="128pt" height="84pt"
 viewBox="0.00 0.00 128.00 84.00" xmlns="http://www.w3.org/2000/svg" xmlns:xlink="http://www.w3.org/1999/xlink">
<g id="graph0" class="graph" transform="scale(1 1) rotate(0) translate(4 80)">
<title>progbar.h</title>
<polygon fill="#ffffff" stroke="transparent" points="-4,4 -4,-80 124,-80 124,4 -4,4"/>
<!-- Node1 -->
<g id="node1" class="node">
<title>Node1</title>
<polygon fill="#bfbfbf" stroke="#000000" points="29,-56.5 29,-75.5 85,-75.5 85,-56.5 29,-56.5"/>
<text text-anchor="middle" x="57" y="-63.5" font-family="Helvetica,sans-Serif" font-size="10.00" fill="#000000">progbar.h</text>
</g>
<!-- Node2 -->
<g id="node2" class="node">
<title>Node2</title>
<g id="a_node2"><a xlink:href="main_8c.html" target="_top" xlink:title="Command Line Interface for the mojo&#45;nes&#45;mk3 programmer. ">
<polygon fill="#ffffff" stroke="#000000" points="0,-.5 0,-19.5 46,-19.5 46,-.5 0,-.5"/>
<text text-anchor="middle" x="23" y="-7.5" font-family="Helvetica,sans-Serif" font-size="10.00" fill="#000000">main.c</text>
</a>
</g>
</g>
<!-- Node1&#45;&gt;Node2 -->
<g id="edge1" class="edge">
<title>Node1&#45;&gt;Node2</title>
<path fill="none" stroke="#191970" d="M45.8465,-47.6296C40.1753,-38.2887 33.5155,-27.3197 28.8545,-19.6427"/>
<polygon fill="#191970" stroke="#191970" points="42.8961,-49.5141 51.0777,-56.2455 48.8796,-45.8812 42.8961,-49.5141"/>
</g>
<!-- Node3 -->
<g id="node3" class="node">
<title>Node3</title>
<g id="a_node3"><a xlink:href="progbar_8c.html" target="_top" xlink:title="Draw progress bars for command line applications. ">
<polygon fill="#ffffff" stroke="#000000" points="64,-.5 64,-19.5 120,-19.5 120,-.5 64,-.5"/>
<text text-anchor="middle" x="92" y="-7.5" font-family="Helvetica,sans-Serif" font-size="10.00" fill="#000000">progbar.c</text>
</a>
</g>
</g>
<!-- Node1&#45;&gt;Node3 -->
<g id="edge2" class="edge">
<title>Node1&#45;&gt;Node3</title>
<path fill="none" stroke="#191970" d="M68.4815,-47.6296C74.3196,-38.2887 81.1752,-27.3197 85.9733,-19.6427"/>
<polygon fill="#191970" stroke="#191970" points="65.4286,-45.9105 63.0965,-56.2455 71.3646,-49.6206 65.4286,-45.9105"/>
</g>
</g>
</svg>
