<?xml version="1.0" encoding="UTF-8" standalone="no"?>
<!DOCTYPE svg PUBLIC "-//W3C//DTD SVG 1.1//EN"
 "http://www.w3.org/Graphics/SVG/1.1/DTD/svg11.dtd">
<!-- Generated by graphviz version 2.40.1 (20161225.0304)
 -->
<!-- Title: pspawn.c Pages: 1 -->
<svg width="401pt" height="84pt"
 viewBox="0.00 0.00 400.50 84.00" xmlns="http://www.w3.org/2000/svg" xmlns:xlink="http://www.w3.org/1999/xlink">
<g id="graph0" class="graph" transform="scale(1 1) rotate(0) translate(4 80)">
<title>pspawn.c</title>
<polygon fill="#ffffff" stroke="transparent" points="-4,4 -4,-80 396.5,-80 396.5,4 -4,4"/>
<!-- Node0 -->
<g id="node1" class="node">
<title>Node0</title>
<polygon fill="#bfbfbf" stroke="#000000" points="166,-56.5 166,-75.5 224,-75.5 224,-56.5 166,-56.5"/>
<text text-anchor="middle" x="195" y="-63.5" font-family="Helvetica,sans-Serif" font-size="10.00" fill="#000000">pspawn.c</text>
</g>
<!-- Node1 -->
<g id="node2" class="node">
<title>Node1</title>
<g id="a_node2"><a xlink:href="pspawn_8h.html" target="_top" xlink:title="Spawns a child process using a pseudo terminal. ">
<polygon fill="#ffffff" stroke="#000000" points="0,-.5 0,-19.5 58,-19.5 58,-.5 0,-.5"/>
<text text-anchor="middle" x="29" y="-7.5" font-family="Helvetica,sans-Serif" font-size="10.00" fill="#000000">pspawn.h</text>
</a>
</g>
</g>
<!-- Node0&#45;&gt;Node1 -->
<g id="edge1" class="edge">
<title>Node0&#45;&gt;Node1</title>
<path fill="none" stroke="#191970" d="M166.4636,-56.3733C138.9798,-47.1016 97.2314,-33.0178 66.9548,-22.804"/>
<polygon fill="#191970" stroke="#191970" points="67.7582,-19.3813 57.164,-19.5011 65.5206,-26.0141 67.7582,-19.3813"/>
</g>
<!-- Node2 -->
<g id="node3" class="node">
<title>Node2</title>
<polygon fill="#ffffff" stroke="#bfbfbf" points="76.5,-.5 76.5,-19.5 127.5,-19.5 127.5,-.5 76.5,-.5"/>
<text text-anchor="middle" x="102" y="-7.5" font-family="Helvetica,sans-Serif" font-size="10.00" fill="#000000">unistd.h</text>
</g>
<!-- Node0&#45;&gt;Node2 -->
<g id="edge2" class="edge">
<title>Node0&#45;&gt;Node2</title>
<path fill="none" stroke="#191970" d="M178.8006,-56.2455C164.3982,-47.5731 143.1268,-34.7645 126.6201,-24.825"/>
<polygon fill="#191970" stroke="#191970" points="128.386,-21.8028 118.0137,-19.6427 124.775,-27.7996 128.386,-21.8028"/>
</g>
<!-- Node3 -->
<g id="node4" class="node">
<title>Node3</title>
<polygon fill="#ffffff" stroke="#bfbfbf" points="146,-.5 146,-19.5 184,-19.5 184,-.5 146,-.5"/>
<text text-anchor="middle" x="165" y="-7.5" font-family="Helvetica,sans-Serif" font-size="10.00" fill="#000000">pty.h</text>
</g>
<!-- Node0&#45;&gt;Node3 -->
<g id="edge3" class="edge">
<title>Node0&#45;&gt;Node3</title>
<path fill="none" stroke="#191970" d="M189.7744,-56.2455C185.6877,-48.617 179.8865,-37.7881 174.925,-28.5267"/>
<polygon fill="#191970" stroke="#191970" points="177.9732,-26.8047 170.1657,-19.6427 171.8028,-30.1103 177.9732,-26.8047"/>
</g>
<!-- Node4 -->
<g id="node5" class="node">
<title>Node4</title>
<polygon fill="#ffffff" stroke="#bfbfbf" points="202,-.5 202,-19.5 248,-19.5 248,-.5 202,-.5"/>
<text text-anchor="middle" x="225" y="-7.5" font-family="Helvetica,sans-Serif" font-size="10.00" fill="#000000">stdio.h</text>
</g>
<!-- Node0&#45;&gt;Node4 -->
<g id="edge4" class="edge">
<title>Node0&#45;&gt;Node4</title>
<path fill="none" stroke="#191970" d="M200.2256,-56.2455C204.3123,-48.617 210.1135,-37.7881 215.075,-28.5267"/>
<polygon fill="#191970" stroke="#191970" points="218.1972,-30.1103 219.8343,-19.6427 212.0268,-26.8047 218.1972,-30.1103"/>
</g>
<!-- Node5 -->
<g id="node6" class="node">
<title>Node5</title>
<polygon fill="#ffffff" stroke="#bfbfbf" points="266.5,-.5 266.5,-19.5 327.5,-19.5 327.5,-.5 266.5,-.5"/>
<text text-anchor="middle" x="297" y="-7.5" font-family="Helvetica,sans-Serif" font-size="10.00" fill="#000000">sys/wait.h</text>
</g>
<!-- Node0&#45;&gt;Node5 -->
<g id="edge5" class="edge">
<title>Node0&#45;&gt;Node5</title>
<path fill="none" stroke="#191970" d="M212.767,-56.2455C228.7095,-47.4928 252.3259,-34.527 270.4989,-24.5496"/>
<polygon fill="#191970" stroke="#191970" points="272.3552,-27.5233 279.4366,-19.6427 268.9863,-21.3873 272.3552,-27.5233"/>
</g>
<!-- Node6 -->
<g id="node7" class="node">
<title>Node6</title>
<polygon fill="#ffffff" stroke="#bfbfbf" points="345.5,-.5 345.5,-19.5 392.5,-19.5 392.5,-.5 345.5,-.5"/>
<text text-anchor="middle" x="369" y="-7.5" font-family="Helvetica,sans-Serif" font-size="10.00" fill="#000000">errno.h</text>
</g>
<!-- Node0&#45;&gt;Node6 -->
<g id="edge6" class="edge">
<title>Node0&#45;&gt;Node6</title>
<path fill="none" stroke="#191970" d="M224.1237,-56.6269C254.8524,-46.7372 303.2107,-31.1736 335.4992,-20.7819"/>
<polygon fill="#191970" stroke="#191970" points="336.9283,-23.9988 345.3752,-17.6034 334.7837,-17.3354 336.9283,-23.9988"/>
</g>
</g>
</svg>
