<?xml version="1.0" encoding="UTF-8" standalone="no"?>
<!DOCTYPE svg PUBLIC "-//W3C//DTD SVG 1.1//EN"
 "http://www.w3.org/Graphics/SVG/1.1/DTD/svg11.dtd">
<!-- Generated by graphviz version 2.40.1 (20161225.0304)
 -->
<!-- Title: pspawn.h Pages: 1 -->
<svg width="234pt" height="84pt"
 viewBox="0.00 0.00 233.50 84.00" xmlns="http://www.w3.org/2000/svg" xmlns:xlink="http://www.w3.org/1999/xlink">
<g id="graph0" class="graph" transform="scale(1 1) rotate(0) translate(4 80)">
<title>pspawn.h</title>
<polygon fill="#ffffff" stroke="transparent" points="-4,4 -4,-80 229.5,-80 229.5,4 -4,4"/>
<!-- Node1 -->
<g id="node1" class="node">
<title>Node1</title>
<polygon fill="#bfbfbf" stroke="#000000" points="84.5,-56.5 84.5,-75.5 142.5,-75.5 142.5,-56.5 84.5,-56.5"/>
<text text-anchor="middle" x="113.5" y="-63.5" font-family="Helvetica,sans-Serif" font-size="10.00" fill="#000000">pspawn.h</text>
</g>
<!-- Node2 -->
<g id="node2" class="node">
<title>Node2</title>
<g id="a_node2"><a xlink:href="avrflash_8c.html" target="_top" xlink:title="Flashes elf files to programmer MCU or cart CIC. ">
<polygon fill="#ffffff" stroke="#000000" points="0,-.5 0,-19.5 59,-19.5 59,-.5 0,-.5"/>
<text text-anchor="middle" x="29.5" y="-7.5" font-family="Helvetica,sans-Serif" font-size="10.00" fill="#000000">avrflash.c</text>
</a>
</g>
</g>
<!-- Node1&#45;&gt;Node2 -->
<g id="edge1" class="edge">
<title>Node1&#45;&gt;Node2</title>
<path fill="none" stroke="#191970" d="M90.2351,-50.49C75.4144,-40.6096 56.6791,-28.1194 43.964,-19.6427"/>
<polygon fill="#191970" stroke="#191970" points="88.6063,-53.6107 98.8683,-56.2455 92.4893,-47.7863 88.6063,-53.6107"/>
</g>
<!-- Node3 -->
<g id="node3" class="node">
<title>Node3</title>
<g id="a_node3"><a xlink:href="latticeflash_8c.html" target="_top" xlink:title="Flash specified xcf file to FPGA. ">
<polygon fill="#ffffff" stroke="#000000" points="77.5,-.5 77.5,-19.5 149.5,-19.5 149.5,-.5 77.5,-.5"/>
<text text-anchor="middle" x="113.5" y="-7.5" font-family="Helvetica,sans-Serif" font-size="10.00" fill="#000000">latticeflash.c</text>
</a>
</g>
</g>
<!-- Node1&#45;&gt;Node3 -->
<g id="edge2" class="edge">
<title>Node1&#45;&gt;Node3</title>
<path fill="none" stroke="#191970" d="M113.5,-46.1575C113.5,-37.155 113.5,-26.9199 113.5,-19.6427"/>
<polygon fill="#191970" stroke="#191970" points="110.0001,-46.2455 113.5,-56.2455 117.0001,-46.2456 110.0001,-46.2455"/>
</g>
<!-- Node4 -->
<g id="node4" class="node">
<title>Node4</title>
<g id="a_node4"><a xlink:href="pspawn_8c.html" target="_top" xlink:title="Spawns a child process using a pseudo terminal. ">
<polygon fill="#ffffff" stroke="#000000" points="167.5,-.5 167.5,-19.5 225.5,-19.5 225.5,-.5 167.5,-.5"/>
<text text-anchor="middle" x="196.5" y="-7.5" font-family="Helvetica,sans-Serif" font-size="10.00" fill="#000000">pspawn.c</text>
</a>
</g>
</g>
<!-- Node1&#45;&gt;Node4 -->
<g id="edge3" class="edge">
<title>Node1&#45;&gt;Node4</title>
<path fill="none" stroke="#191970" d="M136.488,-50.49C151.1322,-40.6096 169.6444,-28.1194 182.2082,-19.6427"/>
<polygon fill="#191970" stroke="#191970" points="134.2896,-47.7511 127.9575,-56.2455 138.2047,-53.5539 134.2896,-47.7511"/>
</g>
</g>
</svg>
