<?xml version="1.0" encoding="UTF-8" standalone="no"?>
<!DOCTYPE svg PUBLIC "-//W3C//DTD SVG 1.1//EN"
 "http://www.w3.org/Graphics/SVG/1.1/DTD/svg11.dtd">
<!-- Generated by graphviz version 2.40.1 (20161225.0304)
 -->
<!-- Title: spi&#45;com.h Pages: 1 -->
<svg width="130pt" height="84pt"
 viewBox="0.00 0.00 129.50 84.00" xmlns="http://www.w3.org/2000/svg" xmlns:xlink="http://www.w3.org/1999/xlink">
<g id="graph0" class="graph" transform="scale(1 1) rotate(0) translate(4 80)">
<title>spi&#45;com.h</title>
<polygon fill="#ffffff" stroke="transparent" points="-4,4 -4,-80 125.5,-80 125.5,4 -4,4"/>
<!-- Node3 -->
<g id="node1" class="node">
<title>Node3</title>
<polygon fill="#bfbfbf" stroke="#000000" points="27.5,-56.5 27.5,-75.5 86.5,-75.5 86.5,-56.5 27.5,-56.5"/>
<text text-anchor="middle" x="57" y="-63.5" font-family="Helvetica,sans-Serif" font-size="10.00" fill="#000000">spi&#45;com.h</text>
</g>
<!-- Node4 -->
<g id="node2" class="node">
<title>Node4</title>
<g id="a_node2"><a xlink:href="cmd_8c.html" target="_top" xlink:title="Allows sending commands to the programmer, and receiving results. ">
<polygon fill="#ffffff" stroke="#000000" points="0,-.5 0,-19.5 44,-19.5 44,-.5 0,-.5"/>
<text text-anchor="middle" x="22" y="-7.5" font-family="Helvetica,sans-Serif" font-size="10.00" fill="#000000">cmd.c</text>
</a>
</g>
</g>
<!-- Node3&#45;&gt;Node4 -->
<g id="edge1" class="edge">
<title>Node3&#45;&gt;Node4</title>
<path fill="none" stroke="#191970" d="M45.5185,-47.6296C39.6804,-38.2887 32.8248,-27.3197 28.0267,-19.6427"/>
<polygon fill="#191970" stroke="#191970" points="42.6354,-49.6206 50.9035,-56.2455 48.5714,-45.9105 42.6354,-49.6206"/>
</g>
<!-- Node5 -->
<g id="node3" class="node">
<title>Node5</title>
<g id="a_node3"><a xlink:href="spi-com_8c.html" target="_top" xlink:title="Handles SPI and framing for communications. ">
<polygon fill="#ffffff" stroke="#000000" points="62.5,-.5 62.5,-19.5 121.5,-19.5 121.5,-.5 62.5,-.5"/>
<text text-anchor="middle" x="92" y="-7.5" font-family="Helvetica,sans-Serif" font-size="10.00" fill="#000000">spi&#45;com.c</text>
</a>
</g>
</g>
<!-- Node3&#45;&gt;Node5 -->
<g id="edge2" class="edge">
<title>Node3&#45;&gt;Node5</title>
<path fill="none" stroke="#191970" d="M68.4815,-47.6296C74.3196,-38.2887 81.1752,-27.3197 85.9733,-19.6427"/>
<polygon fill="#191970" stroke="#191970" points="65.4286,-45.9105 63.0965,-56.2455 71.3646,-49.6206 65.4286,-45.9105"/>
</g>
</g>
</svg>
