<?xml version="1.0" encoding="UTF-8" standalone="no"?>
<!DOCTYPE svg PUBLIC "-//W3C//DTD SVG 1.1//EN"
 "http://www.w3.org/Graphics/SVG/1.1/DTD/svg11.dtd">
<!-- Generated by graphviz version 2.40.1 (20161225.0304)
 -->
<!-- Title: spi&#45;com.c Pages: 1 -->
<svg width="323pt" height="140pt"
 viewBox="0.00 0.00 322.50 140.00" xmlns="http://www.w3.org/2000/svg" xmlns:xlink="http://www.w3.org/1999/xlink">
<g id="graph0" class="graph" transform="scale(1 1) rotate(0) translate(4 136)">
<title>spi&#45;com.c</title>
<polygon fill="#ffffff" stroke="transparent" points="-4,4 -4,-136 318.5,-136 318.5,4 -4,4"/>
<!-- Node0 -->
<g id="node1" class="node">
<title>Node0</title>
<polygon fill="#bfbfbf" stroke="#000000" points="165,-112.5 165,-131.5 224,-131.5 224,-112.5 165,-112.5"/>
<text text-anchor="middle" x="194.5" y="-119.5" font-family="Helvetica,sans-Serif" font-size="10.00" fill="#000000">spi&#45;com.c</text>
</g>
<!-- Node1 -->
<g id="node2" class="node">
<title>Node1</title>
<g id="a_node2"><a xlink:href="spi-com_8h.html" target="_top" xlink:title="Handles SPI and framing for communications. ">
<polygon fill="#ffffff" stroke="#000000" points="65,-56.5 65,-75.5 124,-75.5 124,-56.5 65,-56.5"/>
<text text-anchor="middle" x="94.5" y="-63.5" font-family="Helvetica,sans-Serif" font-size="10.00" fill="#000000">spi&#45;com.h</text>
</a>
</g>
</g>
<!-- Node0&#45;&gt;Node1 -->
<g id="edge1" class="edge">
<title>Node0&#45;&gt;Node1</title>
<path fill="none" stroke="#191970" d="M177.0813,-112.2455C161.4515,-103.4928 138.2981,-90.527 120.4815,-80.5496"/>
<polygon fill="#191970" stroke="#191970" points="122.1543,-77.475 111.7191,-75.6427 118.734,-83.5825 122.1543,-77.475"/>
</g>
<!-- Node4 -->
<g id="node5" class="node">
<title>Node4</title>
<g id="a_node5"><a xlink:href="util_8h.html" target="_top" xlink:title="General purpose utiities. ">
<polygon fill="#ffffff" stroke="#000000" points="144.5,-56.5 144.5,-75.5 182.5,-75.5 182.5,-56.5 144.5,-56.5"/>
<text text-anchor="middle" x="163.5" y="-63.5" font-family="Helvetica,sans-Serif" font-size="10.00" fill="#000000">util.h</text>
</a>
</g>
</g>
<!-- Node0&#45;&gt;Node4 -->
<g id="edge4" class="edge">
<title>Node0&#45;&gt;Node4</title>
<path fill="none" stroke="#191970" d="M189.1002,-112.2455C184.8773,-104.617 178.8827,-93.7881 173.7559,-84.5267"/>
<polygon fill="#191970" stroke="#191970" points="176.7432,-82.6965 168.8379,-75.6427 170.619,-86.0867 176.7432,-82.6965"/>
</g>
<!-- Node6 -->
<g id="node7" class="node">
<title>Node6</title>
<polygon fill="#ffffff" stroke="#bfbfbf" points="201,-56.5 201,-75.5 250,-75.5 250,-56.5 201,-56.5"/>
<text text-anchor="middle" x="225.5" y="-63.5" font-family="Helvetica,sans-Serif" font-size="10.00" fill="#000000">string.h</text>
</g>
<!-- Node0&#45;&gt;Node6 -->
<g id="edge6" class="edge">
<title>Node0&#45;&gt;Node6</title>
<path fill="none" stroke="#191970" d="M199.8998,-112.2455C204.1227,-104.617 210.1173,-93.7881 215.2441,-84.5267"/>
<polygon fill="#191970" stroke="#191970" points="218.381,-86.0867 220.1621,-75.6427 212.2568,-82.6965 218.381,-86.0867"/>
</g>
<!-- Node7 -->
<g id="node8" class="node">
<title>Node7</title>
<polygon fill="#ffffff" stroke="#bfbfbf" points="268.5,-56.5 268.5,-75.5 314.5,-75.5 314.5,-56.5 268.5,-56.5"/>
<text text-anchor="middle" x="291.5" y="-63.5" font-family="Helvetica,sans-Serif" font-size="10.00" fill="#000000">stdio.h</text>
</g>
<!-- Node0&#45;&gt;Node7 -->
<g id="edge7" class="edge">
<title>Node0&#45;&gt;Node7</title>
<path fill="none" stroke="#191970" d="M211.3961,-112.2455C226.418,-103.5731 248.6043,-90.7645 265.821,-80.825"/>
<polygon fill="#191970" stroke="#191970" points="267.8871,-83.6737 274.7975,-75.6427 264.3872,-77.6114 267.8871,-83.6737"/>
</g>
<!-- Node2 -->
<g id="node3" class="node">
<title>Node2</title>
<polygon fill="#ffffff" stroke="#bfbfbf" points="0,-.5 0,-19.5 49,-19.5 49,-.5 0,-.5"/>
<text text-anchor="middle" x="24.5" y="-7.5" font-family="Helvetica,sans-Serif" font-size="10.00" fill="#000000">stdint.h</text>
</g>
<!-- Node1&#45;&gt;Node2 -->
<g id="edge2" class="edge">
<title>Node1&#45;&gt;Node2</title>
<path fill="none" stroke="#191970" d="M82.3069,-56.2455C71.8679,-47.8943 56.6345,-35.7076 44.426,-25.9408"/>
<polygon fill="#191970" stroke="#191970" points="46.5485,-23.1566 36.5533,-19.6427 42.1756,-28.6227 46.5485,-23.1566"/>
</g>
<!-- Node3 -->
<g id="node4" class="node">
<title>Node3</title>
<polygon fill="#ffffff" stroke="#bfbfbf" points="67.5,-.5 67.5,-19.5 121.5,-19.5 121.5,-.5 67.5,-.5"/>
<text text-anchor="middle" x="94.5" y="-7.5" font-family="Helvetica,sans-Serif" font-size="10.00" fill="#000000">mpsse.h</text>
</g>
<!-- Node1&#45;&gt;Node3 -->
<g id="edge3" class="edge">
<title>Node1&#45;&gt;Node3</title>
<path fill="none" stroke="#191970" d="M94.5,-56.2455C94.5,-48.9382 94.5,-38.6944 94.5,-29.7046"/>
<polygon fill="#191970" stroke="#191970" points="98.0001,-29.6426 94.5,-19.6427 91.0001,-29.6427 98.0001,-29.6426"/>
</g>
<!-- Node5 -->
<g id="node6" class="node">
<title>Node5</title>
<polygon fill="#ffffff" stroke="#bfbfbf" points="140,-.5 140,-19.5 191,-19.5 191,-.5 140,-.5"/>
<text text-anchor="middle" x="165.5" y="-7.5" font-family="Helvetica,sans-Serif" font-size="10.00" fill="#000000">unistd.h</text>
</g>
<!-- Node4&#45;&gt;Node5 -->
<g id="edge5" class="edge">
<title>Node4&#45;&gt;Node5</title>
<path fill="none" stroke="#191970" d="M163.8484,-56.2455C164.1093,-48.9382 164.4752,-38.6944 164.7963,-29.7046"/>
<polygon fill="#191970" stroke="#191970" points="168.2964,-29.7613 165.1556,-19.6427 161.3008,-29.5113 168.2964,-29.7613"/>
</g>
</g>
</svg>
