<?xml version="1.0" encoding="UTF-8" standalone="no"?>
<!DOCTYPE svg PUBLIC "-//W3C//DTD SVG 1.1//EN"
 "http://www.w3.org/Graphics/SVG/1.1/DTD/svg11.dtd">
<!-- Generated by graphviz version 2.40.1 (20161225.0304)
 -->
<!-- Title: Cmd Pages: 1 -->
<svg width="164pt" height="95pt"
 viewBox="0.00 0.00 164.00 95.00" xmlns="http://www.w3.org/2000/svg" xmlns:xlink="http://www.w3.org/1999/xlink">
<g id="graph0" class="graph" transform="scale(1 1) rotate(0) translate(4 91)">
<title>Cmd</title>
<polygon fill="#ffffff" stroke="transparent" points="-4,4 -4,-91 160,-91 160,4 -4,4"/>
<!-- Node1 -->
<g id="node1" class="node">
<title>Node1</title>
<polygon fill="#bfbfbf" stroke="#000000" points="62.5,-.5 62.5,-19.5 99.5,-19.5 99.5,-.5 62.5,-.5"/>
<text text-anchor="middle" x="81" y="-7.5" font-family="Helvetica,sans-Serif" font-size="10.00" fill="#000000">Cmd</text>
</g>
<!-- Node2 -->
<g id="node2" class="node">
<title>Node2</title>
<g id="a_node2"><a xlink:href="struct_cmd_rd_wr_hdr.html" target="_top" xlink:title="Command header for memory read and write commands. ">
<polygon fill="#ffffff" stroke="#000000" points="0,-67.5 0,-86.5 76,-86.5 76,-67.5 0,-67.5"/>
<text text-anchor="middle" x="38" y="-74.5" font-family="Helvetica,sans-Serif" font-size="10.00" fill="#000000">CmdRdWrHdr</text>
</a>
</g>
</g>
<!-- Node2&#45;&gt;Node1 -->
<g id="edge1" class="edge">
<title>Node2&#45;&gt;Node1</title>
<path fill="none" stroke="#9a32cd" stroke-dasharray="5,2" d="M49.5649,-58.9803C57.7037,-46.2989 68.2775,-29.8235 74.8506,-19.5817"/>
<polygon fill="#9a32cd" stroke="#9a32cd" points="46.6166,-57.0942 44.1609,-67.4005 52.5077,-60.8751 46.6166,-57.0942"/>
<text text-anchor="middle" x="75" y="-41" font-family="Helvetica,sans-Serif" font-size="10.00" fill="#000000"> rdWr</text>
</g>
<!-- Node3 -->
<g id="node3" class="node">
<title>Node3</title>
<g id="a_node3"><a xlink:href="struct_cmd_erase.html" target="_top" xlink:title="Command header for erase commands. ">
<polygon fill="#ffffff" stroke="#000000" points="94,-67.5 94,-86.5 156,-86.5 156,-67.5 94,-67.5"/>
<text text-anchor="middle" x="125" y="-74.5" font-family="Helvetica,sans-Serif" font-size="10.00" fill="#000000">CmdErase</text>
</a>
</g>
</g>
<!-- Node3&#45;&gt;Node1 -->
<g id="edge2" class="edge">
<title>Node3&#45;&gt;Node1</title>
<path fill="none" stroke="#9a32cd" stroke-dasharray="5,2" d="M113.1662,-58.9803C104.8381,-46.2989 94.0184,-29.8235 87.2924,-19.5817"/>
<polygon fill="#9a32cd" stroke="#9a32cd" points="110.281,-60.9631 118.6959,-67.4005 116.1321,-57.1206 110.281,-60.9631"/>
<text text-anchor="middle" x="119" y="-41" font-family="Helvetica,sans-Serif" font-size="10.00" fill="#000000"> erase</text>
</g>
</g>
</svg>
