<?xml version="1.0" encoding="UTF-8" standalone="no"?>
<!DOCTYPE svg PUBLIC "-//W3C//DTD SVG 1.1//EN"
 "http://www.w3.org/Graphics/SVG/1.1/DTD/svg11.dtd">
<!-- Generated by graphviz version 2.40.1 (20161225.0304)
 -->
<!-- Title: CmdRep Pages: 1 -->
<svg width="295pt" height="173pt"
 viewBox="0.00 0.00 294.50 173.00" xmlns="http://www.w3.org/2000/svg" xmlns:xlink="http://www.w3.org/1999/xlink">
<g id="graph0" class="graph" transform="scale(1 1) rotate(0) translate(4 169)">
<title>CmdRep</title>
<polygon fill="#ffffff" stroke="transparent" points="-4,4 -4,-169 290.5,-169 290.5,4 -4,4"/>
<!-- Node1 -->
<g id="node1" class="node">
<title>Node1</title>
<polygon fill="#bfbfbf" stroke="#000000" points="113.5,-.5 113.5,-19.5 167.5,-19.5 167.5,-.5 113.5,-.5"/>
<text text-anchor="middle" x="140.5" y="-7.5" font-family="Helvetica,sans-Serif" font-size="10.00" fill="#000000">CmdRep</text>
</g>
<!-- Node2 -->
<g id="node2" class="node">
<title>Node2</title>
<g id="a_node2"><a xlink:href="struct_cmd_rep_fw_ver.html" target="_top" xlink:title="Firmware version command response. ">
<polygon fill="#ffffff" stroke="#000000" points="0,-67.5 0,-86.5 81,-86.5 81,-67.5 0,-67.5"/>
<text text-anchor="middle" x="40.5" y="-74.5" font-family="Helvetica,sans-Serif" font-size="10.00" fill="#000000">CmdRepFwVer</text>
</a>
</g>
</g>
<!-- Node2&#45;&gt;Node1 -->
<g id="edge1" class="edge">
<title>Node2&#45;&gt;Node1</title>
<path fill="none" stroke="#9a32cd" stroke-dasharray="5,2" d="M63.3562,-61.6864C82.6922,-48.7312 109.7996,-30.5693 126.199,-19.5817"/>
<polygon fill="#9a32cd" stroke="#9a32cd" points="61.1871,-58.9266 54.8276,-67.4005 65.0834,-64.742 61.1871,-58.9266"/>
<text text-anchor="middle" x="110.5" y="-41" font-family="Helvetica,sans-Serif" font-size="10.00" fill="#000000"> fwVer</text>
</g>
<!-- Node3 -->
<g id="node3" class="node">
<title>Node3</title>
<g id="a_node3"><a xlink:href="struct_cmd_rep_empty.html" target="_top" xlink:title="Empty command response. ">
<polygon fill="#ffffff" stroke="#000000" points="99,-67.5 99,-86.5 182,-86.5 182,-67.5 99,-67.5"/>
<text text-anchor="middle" x="140.5" y="-74.5" font-family="Helvetica,sans-Serif" font-size="10.00" fill="#000000">CmdRepEmpty</text>
</a>
</g>
</g>
<!-- Node3&#45;&gt;Node1 -->
<g id="edge2" class="edge">
<title>Node3&#45;&gt;Node1</title>
<path fill="none" stroke="#9a32cd" stroke-dasharray="5,2" d="M140.5,-57.1079C140.5,-44.714 140.5,-29.3263 140.5,-19.5817"/>
<polygon fill="#9a32cd" stroke="#9a32cd" points="137.0001,-57.4005 140.5,-67.4005 144.0001,-57.4006 137.0001,-57.4005"/>
<text text-anchor="middle" x="153.5" y="-41" font-family="Helvetica,sans-Serif" font-size="10.00" fill="#000000"> eRep</text>
</g>
<!-- Node4 -->
<g id="node4" class="node">
<title>Node4</title>
<g id="a_node4"><a xlink:href="struct_cmd_rep_flash_id.html" target="_top" xlink:title="Flash ID command response. ">
<polygon fill="#ffffff" stroke="#000000" points="200.5,-67.5 200.5,-86.5 286.5,-86.5 286.5,-67.5 200.5,-67.5"/>
<text text-anchor="middle" x="243.5" y="-74.5" font-family="Helvetica,sans-Serif" font-size="10.00" fill="#000000">CmdRepFlashId</text>
</a>
</g>
</g>
<!-- Node4&#45;&gt;Node1 -->
<g id="edge3" class="edge">
<title>Node4&#45;&gt;Node1</title>
<path fill="none" stroke="#9a32cd" stroke-dasharray="5,2" d="M220.228,-61.8619C200.295,-48.8957 172.1978,-30.619 155.23,-19.5817"/>
<polygon fill="#9a32cd" stroke="#9a32cd" points="218.4515,-64.8817 228.7426,-67.4005 222.2685,-59.0138 218.4515,-64.8817"/>
<text text-anchor="middle" x="205" y="-41" font-family="Helvetica,sans-Serif" font-size="10.00" fill="#000000"> fId</text>
</g>
<!-- Node5 -->
<g id="node5" class="node">
<title>Node5</title>
<g id="a_node5"><a xlink:href="struct_cmd_flash_id.html" target="_top" xlink:title="Flash chip identification information. ">
<polygon fill="#ffffff" stroke="#000000" points="209,-145.5 209,-164.5 278,-164.5 278,-145.5 209,-145.5"/>
<text text-anchor="middle" x="243.5" y="-152.5" font-family="Helvetica,sans-Serif" font-size="10.00" fill="#000000">CmdFlashId</text>
</a>
</g>
</g>
<!-- Node5&#45;&gt;Node4 -->
<g id="edge4" class="edge">
<title>Node5&#45;&gt;Node4</title>
<path fill="none" stroke="#9a32cd" stroke-dasharray="5,2" d="M243.5,-135.2866C243.5,-119.7395 243.5,-98.7276 243.5,-86.6426"/>
<polygon fill="#9a32cd" stroke="#9a32cd" points="240.0001,-135.4356 243.5,-145.4357 247.0001,-135.4357 240.0001,-135.4356"/>
<text text-anchor="middle" x="252" y="-119" font-family="Helvetica,sans-Serif" font-size="10.00" fill="#000000"> chr</text>
<text text-anchor="middle" x="252" y="-108" font-family="Helvetica,sans-Serif" font-size="10.00" fill="#000000">prg</text>
</g>
</g>
</svg>
