<?xml version="1.0" encoding="UTF-8" standalone="no"?>
<!DOCTYPE svg PUBLIC "-//W3C//DTD SVG 1.1//EN"
 "http://www.w3.org/Graphics/SVG/1.1/DTD/svg11.dtd">
<!-- Generated by graphviz version 2.40.1 (20161225.0304)
 -->
<!-- Title: util.h Pages: 1 -->
<svg width="341pt" height="140pt"
 viewBox="0.00 0.00 341.00 140.00" xmlns="http://www.w3.org/2000/svg" xmlns:xlink="http://www.w3.org/1999/xlink">
<g id="graph0" class="graph" transform="scale(1 1) rotate(0) translate(4 136)">
<title>util.h</title>
<polygon fill="#ffffff" stroke="transparent" points="-4,4 -4,-136 337,-136 337,4 -4,4"/>
<!-- Node2 -->
<g id="node1" class="node">
<title>Node2</title>
<polygon fill="#bfbfbf" stroke="#000000" points="124.5,-112.5 124.5,-131.5 162.5,-131.5 162.5,-112.5 124.5,-112.5"/>
<text text-anchor="middle" x="143.5" y="-119.5" font-family="Helvetica,sans-Serif" font-size="10.00" fill="#000000">util.h</text>
</g>
<!-- Node3 -->
<g id="node2" class="node">
<title>Node3</title>
<g id="a_node2"><a xlink:href="avrflash_8h.html" target="_top" xlink:title="Flashes elf files to programmer MCU or cart CIC. ">
<polygon fill="#ffffff" stroke="#000000" points="6,-56.5 6,-75.5 65,-75.5 65,-56.5 6,-56.5"/>
<text text-anchor="middle" x="35.5" y="-63.5" font-family="Helvetica,sans-Serif" font-size="10.00" fill="#000000">avrflash.h</text>
</a>
</g>
</g>
<!-- Node2&#45;&gt;Node3 -->
<g id="edge1" class="edge">
<title>Node2&#45;&gt;Node3</title>
<path fill="none" stroke="#191970" d="M115.7229,-107.5971C96.3618,-97.558 71.0615,-84.4393 54.0966,-75.6427"/>
<polygon fill="#191970" stroke="#191970" points="114.1992,-110.7495 124.6878,-112.2455 117.4214,-104.5352 114.1992,-110.7495"/>
</g>
<!-- Node5 -->
<g id="node4" class="node">
<title>Node5</title>
<g id="a_node4"><a xlink:href="main_8c.html" target="_top" xlink:title="Command Line Interface for the mojo&#45;nes&#45;mk3 programmer. ">
<polygon fill="#ffffff" stroke="#000000" points="77.5,-.5 77.5,-19.5 123.5,-19.5 123.5,-.5 77.5,-.5"/>
<text text-anchor="middle" x="100.5" y="-7.5" font-family="Helvetica,sans-Serif" font-size="10.00" fill="#000000">main.c</text>
</a>
</g>
</g>
<!-- Node2&#45;&gt;Node5 -->
<g id="edge8" class="edge">
<title>Node2&#45;&gt;Node5</title>
<path fill="none" stroke="#191970" d="M129.142,-104.4314C123.1328,-96.2405 116.6047,-86.0882 112.5,-76 104.7749,-57.0142 102,-32.9385 101.02,-19.7454"/>
<polygon fill="#191970" stroke="#191970" points="126.4454,-106.6662 135.3197,-112.4538 131.9915,-102.3953 126.4454,-106.6662"/>
</g>
<!-- Node6 -->
<g id="node5" class="node">
<title>Node6</title>
<g id="a_node5"><a xlink:href="cmd_8c.html" target="_top" xlink:title="Allows sending commands to the programmer, and receiving results. ">
<polygon fill="#ffffff" stroke="#000000" points="121.5,-56.5 121.5,-75.5 165.5,-75.5 165.5,-56.5 121.5,-56.5"/>
<text text-anchor="middle" x="143.5" y="-63.5" font-family="Helvetica,sans-Serif" font-size="10.00" fill="#000000">cmd.c</text>
</a>
</g>
</g>
<!-- Node2&#45;&gt;Node6 -->
<g id="edge4" class="edge">
<title>Node2&#45;&gt;Node6</title>
<path fill="none" stroke="#191970" d="M143.5,-102.1575C143.5,-93.155 143.5,-82.9199 143.5,-75.6427"/>
<polygon fill="#191970" stroke="#191970" points="140.0001,-102.2455 143.5,-112.2455 147.0001,-102.2456 140.0001,-102.2455"/>
</g>
<!-- Node7 -->
<g id="node6" class="node">
<title>Node7</title>
<g id="a_node6"><a xlink:href="latticeflash_8h.html" target="_top" xlink:title="Flash specified xcf file to FPGA. ">
<polygon fill="#ffffff" stroke="#000000" points="183.5,-56.5 183.5,-75.5 255.5,-75.5 255.5,-56.5 183.5,-56.5"/>
<text text-anchor="middle" x="219.5" y="-63.5" font-family="Helvetica,sans-Serif" font-size="10.00" fill="#000000">latticeflash.h</text>
</a>
</g>
</g>
<!-- Node2&#45;&gt;Node7 -->
<g id="edge5" class="edge">
<title>Node2&#45;&gt;Node7</title>
<path fill="none" stroke="#191970" d="M164.9297,-106.2097C178.2777,-96.3743 195.0179,-84.0394 206.4135,-75.6427"/>
<polygon fill="#191970" stroke="#191970" points="162.7126,-103.4958 156.7382,-112.2455 166.865,-109.1312 162.7126,-103.4958"/>
</g>
<!-- Node9 -->
<g id="node8" class="node">
<title>Node9</title>
<g id="a_node8"><a xlink:href="spi-com_8c.html" target="_top" xlink:title="Handles SPI and framing for communications. ">
<polygon fill="#ffffff" stroke="#000000" points="274,-56.5 274,-75.5 333,-75.5 333,-56.5 274,-56.5"/>
<text text-anchor="middle" x="303.5" y="-63.5" font-family="Helvetica,sans-Serif" font-size="10.00" fill="#000000">spi&#45;com.c</text>
</a>
</g>
</g>
<!-- Node2&#45;&gt;Node9 -->
<g id="edge9" class="edge">
<title>Node2&#45;&gt;Node9</title>
<path fill="none" stroke="#191970" d="M172.5064,-111.8478C201.9628,-101.538 247.2355,-85.6926 276.1002,-75.5899"/>
<polygon fill="#191970" stroke="#191970" points="171.0821,-108.638 162.7997,-115.2451 173.3946,-115.245 171.0821,-108.638"/>
</g>
<!-- Node4 -->
<g id="node3" class="node">
<title>Node4</title>
<g id="a_node3"><a xlink:href="avrflash_8c.html" target="_top" xlink:title="Flashes elf files to programmer MCU or cart CIC. ">
<polygon fill="#ffffff" stroke="#000000" points="0,-.5 0,-19.5 59,-19.5 59,-.5 0,-.5"/>
<text text-anchor="middle" x="29.5" y="-7.5" font-family="Helvetica,sans-Serif" font-size="10.00" fill="#000000">avrflash.c</text>
</a>
</g>
</g>
<!-- Node3&#45;&gt;Node4 -->
<g id="edge2" class="edge">
<title>Node3&#45;&gt;Node4</title>
<path fill="none" stroke="#191970" d="M33.374,-46.1575C32.4095,-37.155 31.3128,-26.9199 30.5331,-19.6427"/>
<polygon fill="#191970" stroke="#191970" points="29.9094,-46.6753 34.4549,-56.2455 36.8695,-45.9296 29.9094,-46.6753"/>
</g>
<!-- Node3&#45;&gt;Node5 -->
<g id="edge3" class="edge">
<title>Node3&#45;&gt;Node5</title>
<path fill="none" stroke="#191970" d="M54.4835,-49.645C65.7879,-39.9058 79.747,-27.8795 89.3076,-19.6427"/>
<polygon fill="#191970" stroke="#191970" points="52.1138,-47.0668 46.8221,-56.2455 56.6827,-52.3701 52.1138,-47.0668"/>
</g>
<!-- Node7&#45;&gt;Node5 -->
<g id="edge7" class="edge">
<title>Node7&#45;&gt;Node5</title>
<path fill="none" stroke="#191970" d="M189.9856,-52.1109C168.4062,-41.9559 139.7024,-28.4482 120.6899,-19.5011"/>
<polygon fill="#191970" stroke="#191970" points="188.5047,-55.2821 199.0432,-56.3733 191.4853,-48.9484 188.5047,-55.2821"/>
</g>
<!-- Node8 -->
<g id="node7" class="node">
<title>Node8</title>
<g id="a_node7"><a xlink:href="latticeflash_8c.html" target="_top" xlink:title="Flash specified xcf file to FPGA. ">
<polygon fill="#ffffff" stroke="#000000" points="183.5,-.5 183.5,-19.5 255.5,-19.5 255.5,-.5 183.5,-.5"/>
<text text-anchor="middle" x="219.5" y="-7.5" font-family="Helvetica,sans-Serif" font-size="10.00" fill="#000000">latticeflash.c</text>
</a>
</g>
</g>
<!-- Node7&#45;&gt;Node8 -->
<g id="edge6" class="edge">
<title>Node7&#45;&gt;Node8</title>
<path fill="none" stroke="#191970" d="M219.5,-46.1575C219.5,-37.155 219.5,-26.9199 219.5,-19.6427"/>
<polygon fill="#191970" stroke="#191970" points="216.0001,-46.2455 219.5,-56.2455 223.0001,-46.2456 216.0001,-46.2455"/>
</g>
</g>
</svg>
